<svg version="1.1" id="Layer_1" xmlns="http://www.w3.org/2000/svg" xmlns:xlink="http://www.w3.org/1999/xlink" x="0px" y="0px"
	 width="100%" viewBox="0 0 1390 1390" enable-background="new 0 0 1390 1390" xml:space="preserve">
<path fill="#FFFFFF" opacity="1.000000" stroke="none" 
	d="
M812.000000,1391.000000 
	C541.333374,1391.000000 271.166748,1391.000000 1.000109,1391.000000 
	C1.000072,927.666809 1.000072,464.333588 1.000036,1.000295 
	C464.333130,1.000197 927.666260,1.000197 1390.999512,1.000098 
	C1390.999756,464.333038 1390.999756,927.666077 1390.999878,1390.999512 
	C1198.166626,1391.000000 1005.333313,1391.000000 812.000000,1391.000000 
M682.153137,9.256945 
	C669.574463,2.741174 657.137207,3.970497 644.731812,9.840775 
	C619.265198,21.891644 598.736938,40.208965 579.869202,60.683140 
	C567.411011,74.202034 558.308105,89.587372 554.705322,107.701477 
	C548.184753,140.484665 537.608154,172.098785 527.763062,203.934402 
	C513.973999,248.523148 500.033478,293.095825 492.961578,339.382812 
	C491.661346,347.893097 488.951477,354.701294 482.173584,360.174194 
	C478.467896,363.166382 475.544800,367.190826 472.517059,370.949799 
	C440.962738,410.124298 417.256805,453.598083 400.055176,500.870697 
	C356.602112,620.285889 324.682648,742.598267 306.344360,868.396362 
	C306.122894,869.915771 305.741058,871.411743 305.131622,874.403076 
	C303.949158,871.461548 303.273590,869.999878 302.765869,868.482056 
	C299.699707,859.316162 296.543610,850.177612 293.653717,840.955933 
	C281.794983,803.114563 269.124847,765.493103 263.568237,725.986511 
	C259.179535,694.783264 253.617706,663.539368 257.214294,631.969299 
	C261.400726,595.221863 260.763397,558.454407 260.640991,521.628113 
	C260.549622,494.142059 260.632263,466.632050 261.665619,439.171387 
	C263.093658,401.220276 265.909637,363.320984 267.305847,325.369141 
	C268.101135,303.751740 268.554810,281.970276 266.840485,260.447632 
	C264.291321,228.443604 232.066452,205.372360 200.345764,210.429214 
	C175.315369,214.419510 151.156250,236.701981 151.068558,265.761200 
	C150.985092,293.422058 150.687698,321.082489 150.660919,348.743286 
	C150.638275,372.141266 149.205246,395.362122 143.810745,418.235260 
	C142.437729,424.057037 141.251053,430.039307 141.003586,435.990417 
	C139.723114,466.782349 138.514816,497.581909 137.783401,528.390747 
	C137.028000,560.210632 136.478195,591.989197 133.272324,623.729736 
	C130.982895,646.396790 130.542877,669.278381 129.956787,692.081726 
	C129.396194,713.892639 133.019135,735.221191 139.157318,756.167725 
	C144.077469,772.957581 148.372223,789.930786 153.301239,806.717896 
	C163.298950,840.767761 171.673615,875.446655 184.114304,908.591125 
	C202.840042,958.480408 224.251434,1007.372253 244.960297,1056.502930 
	C258.956879,1089.709106 272.631470,1122.973755 280.645782,1158.257568 
	C281.345490,1161.338013 282.324005,1164.366943 283.344269,1167.361328 
	C293.493042,1197.148804 322.548767,1216.020630 353.445679,1211.816284 
	C385.779144,1207.416504 408.135071,1181.857544 410.048706,1151.740356 
	C410.766754,1140.439453 411.171936,1129.095703 411.131653,1117.773682 
	C410.991669,1078.413452 412.492462,1039.129883 415.985229,999.925903 
	C419.533905,960.094849 422.327301,920.176208 431.136932,881.000427 
	C436.288879,858.090149 441.883820,835.226501 445.717194,812.083130 
	C455.347931,753.939453 467.283875,696.424683 487.477936,640.886902 
	C488.369019,638.436157 489.146271,635.944031 489.976562,633.471191 
	C492.116577,639.026184 493.196472,644.522583 494.596375,649.936340 
	C514.431702,726.644775 544.603516,799.476440 580.322693,869.854919 
	C616.272583,940.687988 671.994934,993.124573 740.789734,1032.020752 
	C758.968567,1042.298950 777.868774,1050.914551 798.651123,1054.483643 
	C806.249573,1055.788452 813.950928,1056.494385 821.817383,1057.500610 
	C821.479736,1058.717041 821.203735,1059.669067 820.951233,1060.627197 
	C814.334778,1085.738647 801.230225,1107.087036 783.317505,1125.670288 
	C769.083923,1140.436768 757.778198,1157.217651 748.798340,1175.642700 
	C740.304626,1193.070068 730.942566,1209.949219 716.793335,1223.642456 
	C714.652283,1225.714478 712.858887,1228.173950 711.071472,1230.578003 
	C705.510620,1238.057251 699.872681,1245.564575 706.659241,1255.284424 
	C705.659912,1255.622314 705.202332,1255.805908 704.729492,1255.932739 
	C677.770264,1263.160156 661.046143,1280.580200 656.165344,1307.837769 
	C651.313354,1334.934937 660.861694,1356.865479 683.820190,1372.615234 
	C711.656982,1391.711548 751.406372,1385.024780 771.467346,1357.974731 
	C773.138672,1355.720947 775.648438,1353.716431 778.204285,1352.552490 
	C793.232361,1345.708252 806.606689,1336.533569 815.198975,1322.315430 
	C824.221497,1307.385132 832.930786,1292.081421 839.857910,1276.108643 
	C852.984375,1245.841309 869.088623,1217.547485 887.946289,1190.445557 
	C917.313721,1148.239502 940.329773,1102.913086 947.931458,1051.182373 
	C948.532043,1047.095581 951.224548,1046.822632 954.041443,1046.025391 
	C982.611389,1037.939819 1009.807434,1026.846558 1033.112671,1007.981445 
	C1045.405884,998.030457 1057.133789,987.365295 1068.893555,976.774658 
	C1096.059326,952.309509 1122.750977,927.318237 1141.561646,895.458374 
	C1156.553833,870.065857 1172.099243,844.884827 1185.198364,818.516663 
	C1204.915039,778.828064 1217.902100,736.752747 1220.209473,692.160461 
	C1222.158936,654.485046 1220.541016,616.762451 1215.424316,579.413330 
	C1209.097168,533.228516 1193.880249,489.389099 1176.514771,446.341003 
	C1164.314331,416.096985 1148.462036,387.763763 1129.692627,361.067413 
	C1103.142090,323.303589 1067.490356,296.026855 1028.239014,272.914886 
	C1007.124939,260.482422 984.301453,252.720215 959.872437,251.166473 
	C930.791992,249.316879 901.632812,248.720505 872.518250,247.356201 
	C870.495178,247.261414 867.791016,245.804337 866.696716,244.133774 
	C844.967651,210.959991 823.813171,177.404312 801.754883,144.453140 
	C774.571472,103.846092 746.491150,63.838242 709.659302,31.057716 
	C701.117432,23.455397 691.775513,16.752060 682.153137,9.256945 
z"/>
<path fill="#FF0101" opacity="1.000000" stroke="none" 
	d="
M682.477417,9.446005 
	C691.775513,16.752060 701.117432,23.455397 709.659302,31.057716 
	C746.491150,63.838242 774.571472,103.846092 801.754883,144.453140 
	C823.813171,177.404312 844.967651,210.959991 866.696716,244.133774 
	C867.791016,245.804337 870.495178,247.261414 872.518250,247.356201 
	C901.632812,248.720505 930.791992,249.316879 959.872437,251.166473 
	C984.301453,252.720215 1007.124939,260.482422 1028.239014,272.914886 
	C1067.490356,296.026855 1103.142090,323.303589 1129.692627,361.067413 
	C1148.462036,387.763763 1164.314331,416.096985 1176.514771,446.341003 
	C1193.880249,489.389099 1209.097168,533.228516 1215.424316,579.413330 
	C1220.541016,616.762451 1222.158936,654.485046 1220.209473,692.160461 
	C1217.902100,736.752747 1204.915039,778.828064 1185.198364,818.516663 
	C1172.099243,844.884827 1156.553833,870.065857 1141.561646,895.458374 
	C1122.750977,927.318237 1096.059326,952.309509 1068.893555,976.774658 
	C1057.133789,987.365295 1045.405884,998.030457 1033.112671,1007.981445 
	C1009.807434,1026.846558 982.611389,1037.939819 954.041443,1046.025391 
	C951.224548,1046.822632 948.532043,1047.095581 947.931458,1051.182373 
	C940.329773,1102.913086 917.313721,1148.239502 887.946289,1190.445557 
	C869.088623,1217.547485 852.984375,1245.841309 839.857910,1276.108643 
	C832.930786,1292.081421 824.221497,1307.385132 815.198975,1322.315430 
	C806.606689,1336.533569 793.232361,1345.708252 778.204285,1352.552490 
	C775.648438,1353.716431 773.138672,1355.720947 771.467346,1357.974731 
	C751.406372,1385.024780 711.656982,1391.711548 683.820190,1372.615234 
	C660.861694,1356.865479 651.313354,1334.934937 656.165344,1307.837769 
	C661.046143,1280.580200 677.770264,1263.160156 704.729492,1255.932739 
	C705.202332,1255.805908 705.659912,1255.622314 706.659241,1255.284424 
	C699.872681,1245.564575 705.510620,1238.057251 711.071472,1230.578003 
	C712.858887,1228.173950 714.652283,1225.714478 716.793335,1223.642456 
	C730.942566,1209.949219 740.304626,1193.070068 748.798340,1175.642700 
	C757.778198,1157.217651 769.083923,1140.436768 783.317505,1125.670288 
	C801.230225,1107.087036 814.334778,1085.738647 820.951233,1060.627197 
	C821.203735,1059.669067 821.479736,1058.717041 821.817383,1057.500610 
	C813.950928,1056.494385 806.249573,1055.788452 798.651123,1054.483643 
	C777.868774,1050.914551 758.968567,1042.298950 740.789734,1032.020752 
	C671.994934,993.124573 616.272583,940.687988 580.322693,869.854919 
	C544.603516,799.476440 514.431702,726.644775 494.596375,649.936340 
	C493.196472,644.522583 492.116577,639.026184 489.976562,633.471191 
	C489.146271,635.944031 488.369019,638.436157 487.477936,640.886902 
	C467.283875,696.424683 455.347931,753.939453 445.717194,812.083130 
	C441.883820,835.226501 436.288879,858.090149 431.136932,881.000427 
	C422.327301,920.176208 419.533905,960.094849 415.985229,999.925903 
	C412.492462,1039.129883 410.991669,1078.413452 411.131653,1117.773682 
	C411.171936,1129.095703 410.766754,1140.439453 410.048706,1151.740356 
	C408.135071,1181.857544 385.779144,1207.416504 353.445679,1211.816284 
	C322.548767,1216.020630 293.493042,1197.148804 283.344269,1167.361328 
	C282.324005,1164.366943 281.345490,1161.338013 280.645782,1158.257568 
	C272.631470,1122.973755 258.956879,1089.709106 244.960297,1056.502930 
	C224.251434,1007.372253 202.840042,958.480408 184.114304,908.591125 
	C171.673615,875.446655 163.298950,840.767761 153.301239,806.717896 
	C148.372223,789.930786 144.077469,772.957581 139.157318,756.167725 
	C133.019135,735.221191 129.396194,713.892639 129.956787,692.081726 
	C130.542877,669.278381 130.982895,646.396790 133.272324,623.729736 
	C136.478195,591.989197 137.028000,560.210632 137.783401,528.390747 
	C138.514816,497.581909 139.723114,466.782349 141.003586,435.990417 
	C141.251053,430.039307 142.437729,424.057037 143.810745,418.235260 
	C149.205246,395.362122 150.638275,372.141266 150.660919,348.743286 
	C150.687698,321.082489 150.985092,293.422058 151.068558,265.761200 
	C151.156250,236.701981 175.315369,214.419510 200.345764,210.429214 
	C232.066452,205.372360 264.291321,228.443604 266.840485,260.447632 
	C268.554810,281.970276 268.101135,303.751740 267.305847,325.369141 
	C265.909637,363.320984 263.093658,401.220276 261.665619,439.171387 
	C260.632263,466.632050 260.549622,494.142059 260.640991,521.628113 
	C260.763397,558.454407 261.400726,595.221863 257.214294,631.969299 
	C253.617706,663.539368 259.179535,694.783264 263.568237,725.986511 
	C269.124847,765.493103 281.794983,803.114563 293.653717,840.955933 
	C296.543610,850.177612 299.699707,859.316162 302.765869,868.482056 
	C303.273590,869.999878 303.949158,871.461548 305.131622,874.403076 
	C305.741058,871.411743 306.122894,869.915771 306.344360,868.396362 
	C324.682648,742.598267 356.602112,620.285889 400.055176,500.870697 
	C417.256805,453.598083 440.962738,410.124298 472.517059,370.949799 
	C475.544800,367.190826 478.467896,363.166382 482.173584,360.174194 
	C488.951477,354.701294 491.661346,347.893097 492.961578,339.382812 
	C500.033478,293.095825 513.973999,248.523148 527.763062,203.934402 
	C537.608154,172.098785 548.184753,140.484665 554.705322,107.701477 
	C558.308105,89.587372 567.411011,74.202034 579.869202,60.683140 
	C598.736938,40.208965 619.265198,21.891644 644.731812,9.840775 
	C657.137207,3.970497 669.574463,2.741174 682.477417,9.446005 
M775.759705,380.136139 
	C760.675476,381.526428 745.476074,382.163818 730.529053,384.450836 
	C688.880249,390.823486 648.627563,401.981567 611.011597,421.556946 
	C608.217041,423.011230 607.203003,424.427246 607.277893,427.542999 
	C608.030823,458.854279 608.264465,490.182068 609.360962,521.480164 
	C611.093445,570.932007 616.461121,619.878052 632.729004,667.015930 
	C647.265259,709.136292 666.251709,749.393433 684.325989,790.039124 
	C699.996765,825.279724 722.402588,855.503052 750.196289,882.082825 
	C773.293640,904.171265 799.918213,919.229858 831.360413,925.457947 
	C835.832092,926.343689 840.379639,926.846191 845.134644,927.562683 
	C845.419250,924.856506 845.747009,923.045471 845.780212,921.229065 
	C846.300720,892.761353 847.473450,864.284851 847.137451,835.826355 
	C846.323303,766.854980 845.014343,697.894531 838.720276,629.124573 
	C831.176086,546.696106 820.237427,464.890137 796.968262,385.157349 
	C795.724304,380.894775 794.402161,378.939056 789.688354,379.624390 
	C785.430054,380.243469 781.043274,379.979004 775.759705,380.136139 
M947.804565,490.790894 
	C965.884583,625.255676 971.197449,760.278137 964.300537,896.535645 
	C965.952454,895.621765 966.413330,895.447327 966.778259,895.153625 
	C1000.397949,868.099854 1030.307373,837.813477 1051.110962,799.427612 
	C1074.734497,755.838684 1091.752197,710.382446 1092.573364,659.989197 
	C1093.072998,629.328125 1091.481689,599.074097 1080.778809,569.857178 
	C1073.560303,550.151917 1067.547119,529.999084 1060.104736,510.384125 
	C1053.856079,493.915741 1047.239624,477.460297 1039.161255,461.839417 
	C1023.040344,430.666779 999.675293,405.928772 969.000183,388.469330 
	C955.450195,380.757019 940.636902,378.935333 926.033203,379.316833 
	C933.293884,416.408386 940.487854,453.158844 947.804565,490.790894 
M724.732117,250.917770 
	C706.859802,223.014511 685.040771,198.184677 663.328491,171.525436 
	C653.329529,205.231400 643.635315,237.909851 633.762756,271.189606 
	C649.628723,267.570801 664.265015,263.790527 679.084595,260.975891 
	C694.098450,258.124329 709.296082,256.242828 724.394592,253.820450 
	C724.757385,253.762238 724.900330,252.334000 724.732117,250.917770 
z"/>
<path fill="#FFFEFE" opacity="1.000000" stroke="none" 
	d="
M776.236450,380.120178 
	C781.043274,379.979004 785.430054,380.243469 789.688354,379.624390 
	C794.402161,378.939056 795.724304,380.894775 796.968262,385.157349 
	C820.237427,464.890137 831.176086,546.696106 838.720276,629.124573 
	C845.014343,697.894531 846.323303,766.854980 847.137451,835.826355 
	C847.473450,864.284851 846.300720,892.761353 845.780212,921.229065 
	C845.747009,923.045471 845.419250,924.856506 845.134644,927.562683 
	C840.379639,926.846191 835.832092,926.343689 831.360413,925.457947 
	C799.918213,919.229858 773.293640,904.171265 750.196289,882.082825 
	C722.402588,855.503052 699.996765,825.279724 684.325989,790.039124 
	C666.251709,749.393433 647.265259,709.136292 632.729004,667.015930 
	C616.461121,619.878052 611.093445,570.932007 609.360962,521.480164 
	C608.264465,490.182068 608.030823,458.854279 607.277893,427.542999 
	C607.203003,424.427246 608.217041,423.011230 611.011597,421.556946 
	C648.627563,401.981567 688.880249,390.823486 730.529053,384.450836 
	C745.476074,382.163818 760.675476,381.526428 776.236450,380.120178 
z"/>
<path fill="#FFFEFE" opacity="1.000000" stroke="none" 
	d="
M947.743164,490.350098 
	C940.487854,453.158844 933.293884,416.408386 926.033203,379.316833 
	C940.636902,378.935333 955.450195,380.757019 969.000183,388.469330 
	C999.675293,405.928772 1023.040344,430.666779 1039.161255,461.839417 
	C1047.239624,477.460297 1053.856079,493.915741 1060.104736,510.384125 
	C1067.547119,529.999084 1073.560303,550.151917 1080.778809,569.857178 
	C1091.481689,599.074097 1093.072998,629.328125 1092.573364,659.989197 
	C1091.752197,710.382446 1074.734497,755.838684 1051.110962,799.427612 
	C1030.307373,837.813477 1000.397949,868.099854 966.778259,895.153625 
	C966.413330,895.447327 965.952454,895.621765 964.300537,896.535645 
	C971.197449,760.278137 965.884583,625.255676 947.743164,490.350098 
z"/>
<path fill="#FFFCFC" opacity="1.000000" stroke="none" 
	d="
M724.938965,251.231262 
	C724.900330,252.334000 724.757385,253.762238 724.394592,253.820450 
	C709.296082,256.242828 694.098450,258.124329 679.084595,260.975891 
	C664.265015,263.790527 649.628723,267.570801 633.762756,271.189606 
	C643.635315,237.909851 653.329529,205.231400 663.328491,171.525436 
	C685.040771,198.184677 706.859802,223.014511 724.938965,251.231262 
z"/>
</svg>