<svg version="1.1" id="Layer_1" xmlns="http://www.w3.org/2000/svg" xmlns:xlink="http://www.w3.org/1999/xlink" x="0px" y="0px"
	 width="100%" viewBox="0 0 1525 1525" enable-background="new 0 0 1525 1525" xml:space="preserve">
<path fill="#FFFFFF" opacity="1.000000" stroke="none" 
	d="
M721.000000,0.999990 
	C989.315613,1.000000 1257.631226,1.000000 1525.973389,1.000000 
	C1525.973389,509.282013 1525.973389,1017.564026 1525.973389,1525.923096 
	C1017.751526,1525.923096 509.503052,1525.923096 1.127296,1525.923096 
	C1.127296,1017.785156 1.127296,509.570221 1.127296,1.000000 
	C232.699280,1.000000 464.398743,1.000000 696.696167,1.383987 
	C695.023499,7.811810 696.882629,12.804165 701.092590,17.302277 
	C703.820068,20.216518 706.965637,22.961586 708.884521,26.367929 
	C714.092712,35.613419 718.721558,45.184242 723.635620,54.597050 
	C725.252869,57.694794 726.788330,60.881580 728.793823,63.722176 
	C737.151550,75.560349 746.661255,86.708260 753.910461,99.177879 
	C765.474304,119.069351 776.145203,139.538239 786.089233,160.292114 
	C792.505249,173.682785 795.848083,188.283066 796.352234,203.312546 
	C798.169006,257.478699 797.472229,311.600891 793.760620,365.684601 
	C791.600464,397.161163 786.013000,427.870026 773.652222,457.040009 
	C759.876831,489.548401 745.938477,521.991211 731.638123,554.270691 
	C728.871826,560.515015 724.225281,565.956604 720.226135,571.613037 
	C717.829834,575.002502 714.503418,577.801086 712.458313,581.361145 
	C700.167542,602.756348 687.634094,624.177551 681.349243,648.245422 
	C675.938721,668.965454 668.599060,688.848206 659.743286,708.269226 
	C658.533020,710.923340 658.303101,714.034668 657.690918,716.949280 
	C656.129883,724.381592 655.027222,731.940063 652.973999,739.232117 
	C649.955872,749.951477 644.328369,760.284973 643.222595,771.130554 
	C639.438782,808.243347 644.690369,844.211121 661.223877,878.093140 
	C662.014160,879.712524 663.610901,881.749878 663.174133,883.024353 
	C660.418762,891.064087 665.156311,896.835083 668.704712,902.948914 
	C672.291626,909.129272 677.228394,914.768372 679.630066,921.353516 
	C691.596252,954.164185 707.584167,984.701782 728.460022,1012.730713 
	C731.955933,1017.424438 734.101135,1023.105713 737.100708,1028.194946 
	C738.709717,1030.924927 740.723633,1033.434204 742.709717,1035.919189 
	C744.910278,1038.672729 747.388550,1041.206177 749.556641,1043.983276 
	C751.363586,1046.297729 752.698242,1048.994385 754.591736,1051.225098 
	C758.888855,1056.287231 763.510803,1061.073975 767.803528,1066.139648 
	C777.168396,1077.191162 786.134705,1088.595581 795.836853,1099.338379 
	C799.758118,1103.680420 804.876160,1107.197388 810.001892,1110.121704 
	C814.810364,1112.865112 821.202332,1110.966919 824.553772,1107.053345 
	C828.441406,1102.513550 828.843140,1097.081055 825.746948,1091.840576 
	C825.082031,1090.715088 824.581665,1089.486450 824.067566,1088.278809 
	C821.550354,1082.365967 819.567139,1076.150635 816.400513,1070.610840 
	C813.457214,1065.462036 809.366638,1061.078735 808.831909,1054.688354 
	C808.654236,1052.565308 806.667480,1050.643188 805.758667,1048.521851 
	C803.699829,1043.715698 800.940063,1038.999390 800.019043,1033.962402 
	C798.375854,1024.977051 798.070190,1015.755615 796.825928,1006.684937 
	C796.221313,1002.277527 795.383972,997.702576 793.557129,993.703613 
	C789.667847,985.189636 790.996338,976.640259 791.899170,967.928833 
	C792.292725,964.130920 792.835754,959.783936 791.428894,956.490173 
	C789.039185,950.895447 785.394775,945.770935 781.848755,940.751831 
	C776.916992,933.771240 772.074585,926.942566 771.786011,917.858826 
	C771.688232,914.781372 770.483826,911.655823 769.374573,908.706726 
	C758.871155,880.782776 758.496399,852.225403 762.411011,822.987732 
	C766.544189,792.117737 776.169800,762.466980 780.264954,731.478882 
	C784.374146,700.384460 797.884094,671.518005 811.533447,643.219482 
	C812.687378,640.827209 814.201050,638.611267 815.443542,636.258423 
	C822.500366,622.895142 830.622437,609.950806 836.169922,595.985291 
	C839.774719,586.910156 843.455811,578.591187 850.085815,571.351440 
	C852.402954,568.821167 854.205627,564.160278 853.578125,561.001831 
	C852.746399,556.815186 854.014160,553.985229 855.690002,550.762268 
	C857.149597,547.954956 858.619385,545.135132 859.812866,542.209961 
	C881.878601,488.128967 898.226501,433.036743 893.778320,373.445862 
	C892.247681,352.939911 890.365173,332.657288 885.843079,312.605103 
	C884.868164,308.281708 884.567810,303.720825 884.593811,299.273071 
	C884.670471,286.155060 886.565552,273.067352 883.218323,259.980804 
	C873.918457,223.621811 860.958862,188.742813 841.937134,156.299820 
	C838.513184,150.459976 833.971313,145.275528 829.944763,139.789032 
	C828.402710,137.687775 826.748169,135.659653 825.333557,133.475937 
	C816.933411,120.508553 809.803955,106.467712 799.862793,94.823532 
	C790.995667,84.437370 780.687866,75.342323 772.251282,64.276947 
	C764.882446,54.612015 755.768005,46.469963 749.032532,35.899548 
	C741.062073,23.391026 730.460938,12.558794 721.000000,0.999990 
M642.731628,1518.733521 
	C652.394836,1520.211182 662.024231,1522.614624 671.728394,1522.968628 
	C690.363770,1523.648438 709.049561,1522.837646 727.698547,1523.294067 
	C738.250977,1523.552246 748.644165,1524.099976 758.532471,1519.505005 
	C759.383789,1519.109375 760.491089,1519.196289 761.481628,1519.178833 
	C781.306091,1518.830444 801.132080,1518.562622 820.955200,1518.150513 
	C850.106995,1517.544800 879.242126,1516.726318 907.612305,1508.808960 
	C920.887878,1505.104126 933.989258,1500.681396 948.022278,1500.390259 
	C951.369263,1500.320923 954.778625,1498.934570 957.997742,1497.724121 
	C977.131897,1490.528198 995.825623,1481.832642 1015.408020,1476.230103 
	C1049.440552,1466.493652 1084.062500,1458.835327 1118.343140,1449.942871 
	C1150.636230,1441.566162 1182.681030,1432.392578 1209.361572,1410.897583 
	C1214.085205,1407.091919 1219.189941,1405.269409 1225.273926,1404.797485 
	C1229.984741,1404.432251 1235.129150,1403.393555 1239.105835,1401.020142 
	C1250.353394,1394.307617 1261.201904,1386.904297 1272.015015,1379.492432 
	C1282.908691,1372.025513 1289.721680,1360.470947 1299.179932,1351.421753 
	C1309.621582,1341.431763 1317.049072,1328.280762 1325.726074,1316.460205 
	C1333.909546,1305.311890 1341.459839,1293.647461 1350.259644,1283.013428 
	C1369.979004,1259.184448 1387.584106,1233.972778 1402.758179,1207.038574 
	C1403.375244,1205.943115 1404.399292,1204.199463 1405.185181,1204.225220 
	C1409.004517,1204.351196 1409.379761,1201.406006 1410.143188,1199.028198 
	C1411.818970,1193.808105 1412.856201,1188.361694 1414.797852,1183.252319 
	C1422.253418,1163.633301 1430.876465,1144.403931 1437.278198,1124.456055 
	C1442.069336,1109.527344 1444.469116,1093.781982 1447.258789,1078.278809 
	C1448.917358,1069.060791 1449.122192,1059.674194 1449.297241,1050.198120 
	C1449.679688,1029.476196 1453.225098,1008.831665 1454.213501,988.095276 
	C1454.867920,974.369934 1453.455933,960.533020 1452.707275,946.760254 
	C1452.401245,941.133240 1450.961304,935.556946 1450.795288,929.935181 
	C1449.982788,902.431580 1444.844604,876.303894 1431.529175,851.629944 
	C1417.545288,825.717285 1401.995117,801.761841 1375.776123,786.517151 
	C1372.139893,784.402893 1368.984009,781.187622 1366.165039,777.989319 
	C1352.310791,762.270569 1335.889893,749.910706 1317.161743,740.727478 
	C1304.053467,734.299988 1290.278931,729.285217 1278.200073,720.741699 
	C1274.686768,718.256775 1270.068115,716.844177 1265.755615,716.096069 
	C1259.452148,715.002563 1254.255615,718.056335 1252.030273,722.950867 
	C1249.474121,728.572937 1250.459717,735.508728 1255.573486,739.284424 
	C1260.447754,742.883423 1266.150757,745.377014 1271.547607,748.247070 
	C1277.373535,751.345398 1283.452881,754.008362 1289.090454,757.410339 
	C1299.423340,763.645874 1305.152466,775.717529 1317.224609,779.892212 
	C1318.211914,780.233643 1318.940186,781.439880 1319.693115,782.325562 
	C1328.280396,792.425781 1334.166138,803.481689 1335.380371,817.182190 
	C1336.297485,827.528320 1339.155151,837.721741 1341.427002,847.921265 
	C1342.826904,854.206787 1345.420166,860.283081 1346.297607,866.616821 
	C1348.192627,880.295959 1349.729980,894.053589 1350.651367,907.830078 
	C1351.450317,919.775574 1352.871704,932.066589 1350.958374,943.701660 
	C1348.892700,956.261963 1349.719116,968.556763 1349.419434,980.989929 
	C1349.199707,990.113342 1348.813721,999.360168 1347.142090,1008.297729 
	C1341.650269,1037.664062 1329.649414,1064.525391 1313.883179,1089.736328 
	C1310.911621,1094.488037 1307.144897,1098.827881 1303.274658,1102.911987 
	C1297.455688,1109.052490 1291.189697,1114.767212 1285.173218,1120.723145 
	C1279.315308,1126.522095 1277.407471,1132.993652 1281.787476,1139.477051 
	C1272.844604,1152.009277 1263.739502,1163.725952 1255.845581,1176.208618 
	C1250.836304,1184.129639 1247.023804,1192.636963 1237.894653,1196.862061 
	C1236.438232,1197.536133 1235.244873,1198.877930 1234.073486,1200.053833 
	C1220.697998,1213.479858 1205.610474,1224.617554 1189.243896,1234.130127 
	C1186.150879,1235.927856 1183.588745,1238.672607 1180.887695,1241.098633 
	C1179.096436,1242.707520 1177.728027,1244.871460 1175.771240,1246.198486 
	C1156.765137,1259.087891 1135.825317,1267.960815 1114.446899,1276.079346 
	C1096.117920,1283.039551 1078.140747,1290.922974 1059.976807,1298.321777 
	C1037.588379,1307.441284 1014.751709,1314.940796 990.449768,1316.897217 
	C976.285156,1318.037720 963.920471,1325.688110 949.502808,1327.070801 
	C934.436096,1328.515625 919.778870,1334.013672 904.870667,1337.425537 
	C898.086975,1338.978027 890.679199,1341.868774 884.339233,1340.504639 
	C867.744934,1336.934692 851.858582,1339.282959 835.928711,1342.949219 
	C816.513489,1347.417725 797.689453,1354.398682 777.477173,1355.376221 
	C745.299255,1356.932861 713.200989,1356.012451 681.128601,1353.333496 
	C670.240967,1352.424316 659.415955,1349.678345 648.419617,1352.858643 
	C646.515320,1353.409302 643.778320,1353.254517 642.152893,1352.249756 
	C629.842773,1344.639771 615.738647,1343.537720 602.083618,1340.925903 
	C591.831421,1338.964966 581.463745,1337.939697 571.911682,1332.972534 
	C567.599548,1330.730103 562.470154,1329.617676 557.583862,1328.995483 
	C533.437378,1325.921265 510.412872,1319.352539 488.518066,1308.602417 
	C482.139374,1305.470459 475.326050,1302.421997 468.399963,1301.348511 
	C441.236938,1297.138550 418.510742,1281.474121 392.925354,1273.486572 
	C395.545471,1261.546143 392.179810,1255.228271 380.570068,1251.608398 
	C372.017975,1248.941895 363.252197,1246.806030 354.448761,1245.132812 
	C337.018890,1241.819946 321.996002,1234.125000 309.893188,1221.222656 
	C299.757996,1210.417969 289.940918,1199.298706 280.349823,1188.007080 
	C275.841034,1182.698975 270.836792,1177.170288 268.449219,1170.839355 
	C263.938782,1158.879150 256.100677,1149.204834 249.513474,1138.645386 
	C247.074051,1134.734985 245.257370,1130.413818 243.383133,1126.179688 
	C241.713043,1122.406616 240.838348,1118.210815 238.769516,1114.698120 
	C232.602005,1104.225952 225.943649,1094.044312 219.621475,1083.661377 
	C213.490753,1073.592651 207.476944,1063.451172 201.557175,1053.257080 
	C200.263901,1051.030273 199.055206,1048.518799 198.708572,1046.013794 
	C195.099442,1019.932861 191.482101,993.850220 188.260635,967.719421 
	C185.776199,947.567200 182.074783,927.366028 184.719482,906.995300 
	C188.880173,874.947815 193.718826,843.024536 208.469910,813.583679 
	C211.645142,807.246399 214.907852,801.296753 220.159332,796.411987 
	C229.674408,787.561035 238.614685,778.066345 248.418304,769.558655 
	C258.111359,761.147034 266.075653,750.855591 276.861023,743.663879 
	C277.518951,743.225159 277.825256,742.283447 278.455017,741.773071 
	C279.892578,740.607849 281.412415,739.540955 282.929138,738.477356 
	C287.911224,734.983765 293.331207,731.969849 297.764435,727.883606 
	C301.388397,724.543518 300.992279,717.585083 298.178406,713.410278 
	C294.738403,708.306519 289.032623,706.056152 282.941376,707.601807 
	C261.560822,713.027344 242.023788,722.350769 224.055573,735.148560 
	C220.929031,737.375488 217.074966,738.950684 213.322601,739.861267 
	C201.030884,742.844238 190.256042,748.258972 181.592758,757.646118 
	C178.095062,761.436035 174.423904,765.071045 170.739731,768.682800 
	C161.102219,778.130798 151.265366,787.382507 141.858261,797.053223 
	C139.710358,799.261292 138.941238,802.828857 137.602997,805.800171 
	C136.628510,807.963867 136.285858,810.664917 134.767563,812.292480 
	C114.943092,833.543884 105.684631,859.320007 102.016479,887.571594 
	C101.740410,889.697876 101.376984,891.911560 100.521179,893.849182 
	C87.145988,924.132080 80.823341,955.986877 80.666077,988.908203 
	C80.533310,1016.700928 81.538177,1044.507568 82.530716,1072.290405 
	C82.739685,1078.139771 84.940208,1083.953003 86.501541,1089.707275 
	C87.628510,1093.860596 89.353874,1097.848145 90.571587,1101.980591 
	C93.247070,1111.060181 95.699974,1120.205688 98.403267,1129.276611 
	C99.097229,1131.605347 100.694572,1133.671021 101.343590,1136.005737 
	C103.748352,1144.656860 105.474777,1153.520264 108.280014,1162.032227 
	C117.238365,1189.214722 132.861404,1212.919189 147.772308,1237.026001 
	C158.225052,1253.925293 170.102173,1269.502563 186.358856,1281.077393 
	C194.344910,1286.763550 200.505951,1293.559326 206.316513,1301.420288 
	C237.969833,1344.243774 278.793060,1375.548950 327.125732,1397.887817 
	C345.564697,1406.410034 362.309296,1418.534790 380.126648,1428.479126 
	C412.425323,1446.505737 446.039825,1461.640503 480.807770,1474.385742 
	C489.772217,1477.671997 500.446045,1478.098999 507.176300,1486.776978 
	C508.528259,1488.520142 511.523865,1489.045898 513.820618,1489.989502 
	C527.489624,1495.605957 541.181824,1501.166016 554.854492,1506.773682 
	C564.308044,1510.650879 573.948425,1512.850586 584.326904,1513.386353 
	C603.566406,1514.379395 622.737915,1516.690674 642.731628,1518.733521 
M1021.034485,255.614990 
	C1022.868652,260.208466 1024.469482,264.913239 1026.594849,269.367767 
	C1029.369507,275.183228 1033.214966,280.557648 1035.437378,286.552673 
	C1040.386353,299.903198 1042.862183,313.790619 1043.209351,328.118866 
	C1044.401001,377.288818 1044.062012,426.429565 1040.871338,475.521545 
	C1039.259521,500.322083 1037.654053,525.294617 1029.416138,548.912109 
	C1020.207275,575.313782 1009.790588,601.310120 999.326294,627.251648 
	C993.660095,641.298462 986.855469,654.889648 980.460144,668.637756 
	C975.137329,680.080444 970.753662,692.157837 963.959839,702.664673 
	C956.583618,714.072327 948.037109,724.682129 941.621704,736.819275 
	C932.911194,753.298706 923.185913,769.240417 914.404846,785.684448 
	C909.573914,794.731262 907.255920,804.492310 908.104492,815.083862 
	C908.587891,821.117798 907.858643,827.495972 906.367004,833.387817 
	C903.585205,844.375977 903.197388,855.420593 903.517395,866.604248 
	C903.798645,876.431641 903.745300,886.275513 904.312195,896.084778 
	C904.586121,900.825134 905.454773,905.663086 906.927734,910.171387 
	C909.138123,916.936890 911.754028,923.674866 914.345703,930.198730 
	C918.452148,940.535339 925.611267,949.658691 931.471680,959.299744 
	C932.581665,961.125793 933.957092,962.858826 934.704163,964.826843 
	C942.620361,985.680115 949.861877,1006.736328 962.105713,1025.767334 
	C965.933105,1031.716553 970.128967,1035.891968 975.954468,1039.349365 
	C979.715759,1041.581665 982.962280,1044.803711 986.111877,1047.914062 
	C990.437317,1052.185547 993.910767,1057.502319 998.717224,1061.065186 
	C1007.791199,1067.791626 1017.527893,1073.629883 1027.047729,1079.746094 
	C1030.607300,1082.033081 1034.607666,1083.526978 1036.858643,1087.671753 
	C1037.750000,1089.312988 1040.190430,1090.401001 1042.153076,1091.116333 
	C1047.225830,1092.965088 1051.715454,1091.295532 1055.468018,1087.798950 
	C1059.716675,1083.839966 1060.198486,1078.741943 1058.733521,1073.469116 
	C1056.203491,1064.362915 1050.744507,1057.168701 1043.955811,1050.711182 
	C1041.738037,1048.601562 1040.410278,1045.392334 1039.145264,1042.481689 
	C1037.044800,1037.648682 1036.454468,1031.622925 1033.150879,1027.987305 
	C1029.215698,1023.656738 1029.192993,1019.322693 1028.768555,1014.370667 
	C1028.279663,1008.666199 1027.236450,1002.985779 1026.082153,997.367249 
	C1024.228638,988.346252 1020.509460,979.414307 1020.339478,970.392700 
	C1019.617798,932.102234 1019.903503,893.792480 1019.873779,855.489807 
	C1019.872681,854.050659 1019.943237,852.190186 1020.786255,851.244263 
	C1024.607544,846.956726 1024.686890,841.790527 1024.589844,836.623169 
	C1024.366699,824.740784 1026.518188,813.389709 1031.905029,802.762939 
	C1043.429199,780.028687 1055.170654,757.403625 1066.565796,734.605347 
	C1074.043213,719.645142 1082.078369,705.141296 1094.313599,693.416016 
	C1095.389404,692.385010 1096.583008,691.265137 1097.134888,689.941772 
	C1098.451294,686.784668 1100.809204,683.187866 1100.202148,680.304504 
	C1099.257568,675.818848 1100.707397,672.637512 1102.535767,669.097534 
	C1104.292847,665.695801 1105.994629,662.244690 1107.414307,658.692810 
	C1128.899536,604.939453 1145.449219,550.207275 1139.950439,491.220947 
	C1138.530273,475.985657 1136.832031,460.776184 1135.246094,445.556458 
	C1134.935913,442.578949 1134.232788,439.606293 1134.255981,436.635681 
	C1134.531494,401.286804 1129.435181,366.524048 1122.588623,331.992737 
	C1121.115723,324.563934 1117.939575,317.467743 1115.483398,310.240295 
	C1112.385864,301.125092 1109.172852,292.048950 1106.103271,282.924469 
	C1103.932617,276.471771 1102.883667,269.436890 1099.668579,263.575317 
	C1084.492920,235.907455 1066.474243,210.094055 1046.566650,185.626083 
	C1044.699463,183.331024 1041.390503,182.220505 1038.778931,180.517044 
	C1034.419678,177.673584 1029.429565,175.438553 1025.859375,171.811203 
	C1015.124878,160.904938 1004.943665,149.453918 994.562378,138.200760 
	C993.910217,137.493820 992.912354,136.673004 992.892822,135.884888 
	C992.757446,130.422836 988.659546,129.059784 984.673096,127.196938 
	C977.595703,123.889610 970.597595,120.385750 963.736694,116.651115 
	C958.985962,114.065140 954.315857,112.340546 949.134888,115.036423 
	C944.855896,117.262947 941.905457,122.399124 943.030396,127.158470 
	C943.796082,130.397934 945.435974,133.924286 947.773132,136.209503 
	C955.934753,144.190109 959.828308,154.796097 965.742493,164.131363 
	C972.494934,174.789581 977.832886,186.416336 985.205811,196.593216 
	C998.627502,215.119095 1012.028992,233.542114 1021.034485,255.614990 
M618.317810,352.103119 
	C610.386658,333.947937 602.876953,315.592041 594.362366,297.714752 
	C589.452759,287.406555 583.920654,277.180573 574.781006,269.618439 
	C573.715454,268.736816 573.364075,267.030975 572.566101,265.780945 
	C564.163269,252.617203 556.946838,238.445801 546.953857,226.622543 
	C538.143066,216.197891 527.759827,207.162201 519.338989,196.073227 
	C511.991486,186.397583 502.886383,178.245926 496.103668,167.710602 
	C487.982239,155.095932 477.179962,144.198410 467.423065,132.654999 
	C465.950378,130.912689 464.051880,129.240799 461.997894,128.339539 
	C457.707855,126.457123 453.190735,125.041710 448.807831,128.395172 
	C444.776947,131.479248 442.461823,135.604385 443.598938,140.543625 
	C444.305511,143.612747 446.372528,146.499619 448.298523,149.123581 
	C450.652588,152.330643 454.110199,154.834854 456.015320,158.243912 
	C461.436218,167.944199 466.121979,178.053406 471.468353,187.797958 
	C474.904907,194.061493 478.770691,200.122696 482.850983,205.991699 
	C488.270691,213.787277 494.260986,221.187332 499.645660,229.005554 
	C501.752289,232.064240 502.878387,235.797424 504.457306,239.220535 
	C507.235077,245.242722 509.793640,251.378769 512.842163,257.260773 
	C520.518372,272.071503 528.353027,286.780151 529.787842,303.859741 
	C530.414612,311.320953 531.004944,318.796265 531.998718,326.213318 
	C534.076965,341.723633 536.667969,357.167725 538.597107,372.695068 
	C546.909180,439.598114 536.749695,504.260223 514.453003,567.374023 
	C511.170197,576.666321 506.643372,585.196350 499.861847,592.723755 
	C486.256561,607.825317 473.184814,623.377014 464.794617,642.295654 
	C462.326874,647.860046 458.018402,652.579834 455.046478,657.959045 
	C453.163116,661.368042 452.179138,665.276001 450.814148,668.968506 
	C450.051788,671.030823 449.795349,673.458435 448.529785,675.130066 
	C425.102844,706.073303 408.687592,739.435364 411.615814,779.690002 
	C411.766632,781.763550 411.005890,783.932007 410.511108,786.018677 
	C408.792175,793.268311 406.358398,800.414978 405.374298,807.758606 
	C403.272217,823.444275 402.069153,839.247925 400.194916,854.967224 
	C398.296204,870.891785 401.884247,886.044006 408.137665,900.213135 
	C412.028900,909.030029 414.904816,917.836731 416.799408,927.142029 
	C417.363068,929.910156 418.155792,932.645508 419.034119,935.333618 
	C427.888092,962.430298 441.983398,987.081970 455.187469,1012.121826 
	C466.136993,1032.886230 479.818787,1051.674316 497.260803,1067.625000 
	C507.895416,1077.350220 519.868042,1085.715454 528.360840,1097.680298 
	C529.204407,1098.868774 530.550232,1099.718384 531.718994,1100.655518 
	C538.022766,1105.709595 547.167236,1105.304443 552.030884,1099.778442 
	C556.889343,1094.258545 556.152710,1086.814331 550.206848,1080.512207 
	C541.442566,1071.222778 533.357788,1061.432617 530.629456,1048.522461 
	C528.254761,1037.285522 523.875671,1026.935791 518.049194,1017.119385 
	C513.644226,1009.698059 510.736755,1001.747009 510.325012,993.075012 
	C509.327881,972.073486 509.524261,951.127136 512.429626,930.223938 
	C514.351196,916.398621 517.486206,902.334045 516.587463,888.605164 
	C514.367920,854.699768 518.380005,821.787842 526.970703,789.138062 
	C529.778564,778.466553 531.824707,767.549133 527.868896,756.513428 
	C527.445496,755.332214 528.474487,753.333191 529.326660,752.041199 
	C534.280396,744.530334 539.477905,737.179932 544.416443,729.659363 
	C557.672424,709.472595 570.986572,689.321716 584.009277,668.984741 
	C607.751770,631.907043 617.446289,590.426636 620.812805,547.242554 
	C622.310669,528.028870 624.608948,509.191925 631.219910,490.947876 
	C636.130920,477.395142 636.974365,463.454620 634.063965,449.107300 
	C632.398621,440.897522 631.377747,432.223694 632.093384,423.933716 
	C633.576721,406.749390 630.674927,390.409424 625.522888,374.244080 
	C623.245728,367.099121 620.894836,359.977631 618.317810,352.103119 
z"/>
<path fill="#E71A20" opacity="1.000000" stroke="none" 
	d="
M720.531372,0.999990 
	C730.460938,12.558794 741.062073,23.391026 749.032532,35.899548 
	C755.768005,46.469963 764.882446,54.612015 772.251282,64.276947 
	C780.687866,75.342323 790.995667,84.437370 799.862793,94.823532 
	C809.803955,106.467712 816.933411,120.508553 825.333557,133.475937 
	C826.748169,135.659653 828.402710,137.687775 829.944763,139.789032 
	C833.971313,145.275528 838.513184,150.459976 841.937134,156.299820 
	C860.958862,188.742813 873.918457,223.621811 883.218323,259.980804 
	C886.565552,273.067352 884.670471,286.155060 884.593811,299.273071 
	C884.567810,303.720825 884.868164,308.281708 885.843079,312.605103 
	C890.365173,332.657288 892.247681,352.939911 893.778320,373.445862 
	C898.226501,433.036743 881.878601,488.128967 859.812866,542.209961 
	C858.619385,545.135132 857.149597,547.954956 855.690002,550.762268 
	C854.014160,553.985229 852.746399,556.815186 853.578125,561.001831 
	C854.205627,564.160278 852.402954,568.821167 850.085815,571.351440 
	C843.455811,578.591187 839.774719,586.910156 836.169922,595.985291 
	C830.622437,609.950806 822.500366,622.895142 815.443542,636.258423 
	C814.201050,638.611267 812.687378,640.827209 811.533447,643.219482 
	C797.884094,671.518005 784.374146,700.384460 780.264954,731.478882 
	C776.169800,762.466980 766.544189,792.117737 762.411011,822.987732 
	C758.496399,852.225403 758.871155,880.782776 769.374573,908.706726 
	C770.483826,911.655823 771.688232,914.781372 771.786011,917.858826 
	C772.074585,926.942566 776.916992,933.771240 781.848755,940.751831 
	C785.394775,945.770935 789.039185,950.895447 791.428894,956.490173 
	C792.835754,959.783936 792.292725,964.130920 791.899170,967.928833 
	C790.996338,976.640259 789.667847,985.189636 793.557129,993.703613 
	C795.383972,997.702576 796.221313,1002.277527 796.825928,1006.684937 
	C798.070190,1015.755615 798.375854,1024.977051 800.019043,1033.962402 
	C800.940063,1038.999390 803.699829,1043.715698 805.758667,1048.521851 
	C806.667480,1050.643188 808.654236,1052.565308 808.831909,1054.688354 
	C809.366638,1061.078735 813.457214,1065.462036 816.400513,1070.610840 
	C819.567139,1076.150635 821.550354,1082.365967 824.067566,1088.278809 
	C824.581665,1089.486450 825.082031,1090.715088 825.746948,1091.840576 
	C828.843140,1097.081055 828.441406,1102.513550 824.553772,1107.053345 
	C821.202332,1110.966919 814.810364,1112.865112 810.001892,1110.121704 
	C804.876160,1107.197388 799.758118,1103.680420 795.836853,1099.338379 
	C786.134705,1088.595581 777.168396,1077.191162 767.803528,1066.139648 
	C763.510803,1061.073975 758.888855,1056.287231 754.591736,1051.225098 
	C752.698242,1048.994385 751.363586,1046.297729 749.556641,1043.983276 
	C747.388550,1041.206177 744.910278,1038.672729 742.709717,1035.919189 
	C740.723633,1033.434204 738.709717,1030.924927 737.100708,1028.194946 
	C734.101135,1023.105713 731.955933,1017.424438 728.460022,1012.730713 
	C707.584167,984.701782 691.596252,954.164185 679.630066,921.353516 
	C677.228394,914.768372 672.291626,909.129272 668.704712,902.948914 
	C665.156311,896.835083 660.418762,891.064087 663.174133,883.024353 
	C663.610901,881.749878 662.014160,879.712524 661.223877,878.093140 
	C644.690369,844.211121 639.438782,808.243347 643.222595,771.130554 
	C644.328369,760.284973 649.955872,749.951477 652.973999,739.232117 
	C655.027222,731.940063 656.129883,724.381592 657.690918,716.949280 
	C658.303101,714.034668 658.533020,710.923340 659.743286,708.269226 
	C668.599060,688.848206 675.938721,668.965454 681.349243,648.245422 
	C687.634094,624.177551 700.167542,602.756348 712.458313,581.361145 
	C714.503418,577.801086 717.829834,575.002502 720.226135,571.613037 
	C724.225281,565.956604 728.871826,560.515015 731.638123,554.270691 
	C745.938477,521.991211 759.876831,489.548401 773.652222,457.040009 
	C786.013000,427.870026 791.600464,397.161163 793.760620,365.684601 
	C797.472229,311.600891 798.169006,257.478699 796.352234,203.312546 
	C795.848083,188.283066 792.505249,173.682785 786.089233,160.292114 
	C776.145203,139.538239 765.474304,119.069351 753.910461,99.177879 
	C746.661255,86.708260 737.151550,75.560349 728.793823,63.722176 
	C726.788330,60.881580 725.252869,57.694794 723.635620,54.597050 
	C718.721558,45.184242 714.092712,35.613419 708.884521,26.367929 
	C706.965637,22.961586 703.820068,20.216518 701.092590,17.302277 
	C696.882629,12.804165 695.023499,7.811810 697.147034,1.383987 
	C704.687561,1.000000 712.375183,1.000000 720.531372,0.999990 
z"/>
<path fill="#E71A20" opacity="1.000000" stroke="none" 
	d="
M642.334717,1518.593262 
	C622.737915,1516.690674 603.566406,1514.379395 584.326904,1513.386353 
	C573.948425,1512.850586 564.308044,1510.650879 554.854492,1506.773682 
	C541.181824,1501.166016 527.489624,1495.605957 513.820618,1489.989502 
	C511.523865,1489.045898 508.528259,1488.520142 507.176300,1486.776978 
	C500.446045,1478.098999 489.772217,1477.671997 480.807770,1474.385742 
	C446.039825,1461.640503 412.425323,1446.505737 380.126648,1428.479126 
	C362.309296,1418.534790 345.564697,1406.410034 327.125732,1397.887817 
	C278.793060,1375.548950 237.969833,1344.243774 206.316513,1301.420288 
	C200.505951,1293.559326 194.344910,1286.763550 186.358856,1281.077393 
	C170.102173,1269.502563 158.225052,1253.925293 147.772308,1237.026001 
	C132.861404,1212.919189 117.238365,1189.214722 108.280014,1162.032227 
	C105.474777,1153.520264 103.748352,1144.656860 101.343590,1136.005737 
	C100.694572,1133.671021 99.097229,1131.605347 98.403267,1129.276611 
	C95.699974,1120.205688 93.247070,1111.060181 90.571587,1101.980591 
	C89.353874,1097.848145 87.628510,1093.860596 86.501541,1089.707275 
	C84.940208,1083.953003 82.739685,1078.139771 82.530716,1072.290405 
	C81.538177,1044.507568 80.533310,1016.700928 80.666077,988.908203 
	C80.823341,955.986877 87.145988,924.132080 100.521179,893.849182 
	C101.376984,891.911560 101.740410,889.697876 102.016479,887.571594 
	C105.684631,859.320007 114.943092,833.543884 134.767563,812.292480 
	C136.285858,810.664917 136.628510,807.963867 137.602997,805.800171 
	C138.941238,802.828857 139.710358,799.261292 141.858261,797.053223 
	C151.265366,787.382507 161.102219,778.130798 170.739731,768.682800 
	C174.423904,765.071045 178.095062,761.436035 181.592758,757.646118 
	C190.256042,748.258972 201.030884,742.844238 213.322601,739.861267 
	C217.074966,738.950684 220.929031,737.375488 224.055573,735.148560 
	C242.023788,722.350769 261.560822,713.027344 282.941376,707.601807 
	C289.032623,706.056152 294.738403,708.306519 298.178406,713.410278 
	C300.992279,717.585083 301.388397,724.543518 297.764435,727.883606 
	C293.331207,731.969849 287.911224,734.983765 282.929138,738.477356 
	C281.412415,739.540955 279.892578,740.607849 278.455017,741.773071 
	C277.825256,742.283447 277.518951,743.225159 276.861023,743.663879 
	C266.075653,750.855591 258.111359,761.147034 248.418304,769.558655 
	C238.614685,778.066345 229.674408,787.561035 220.159332,796.411987 
	C214.907852,801.296753 211.645142,807.246399 208.469910,813.583679 
	C193.718826,843.024536 188.880173,874.947815 184.719482,906.995300 
	C182.074783,927.366028 185.776199,947.567200 188.260635,967.719421 
	C191.482101,993.850220 195.099442,1019.932861 198.708572,1046.013794 
	C199.055206,1048.518799 200.263901,1051.030273 201.557175,1053.257080 
	C207.476944,1063.451172 213.490753,1073.592651 219.621475,1083.661377 
	C225.943649,1094.044312 232.602005,1104.225952 238.769516,1114.698120 
	C240.838348,1118.210815 241.713043,1122.406616 243.383133,1126.179688 
	C245.257370,1130.413818 247.074051,1134.734985 249.513474,1138.645386 
	C256.100677,1149.204834 263.938782,1158.879150 268.449219,1170.839355 
	C270.836792,1177.170288 275.841034,1182.698975 280.349823,1188.007080 
	C289.940918,1199.298706 299.757996,1210.417969 309.893188,1221.222656 
	C321.996002,1234.125000 337.018890,1241.819946 354.448761,1245.132812 
	C363.252197,1246.806030 372.017975,1248.941895 380.570068,1251.608398 
	C392.179810,1255.228271 395.545471,1261.546143 392.925354,1273.486572 
	C418.510742,1281.474121 441.236938,1297.138550 468.399963,1301.348511 
	C475.326050,1302.421997 482.139374,1305.470459 488.518066,1308.602417 
	C510.412872,1319.352539 533.437378,1325.921265 557.583862,1328.995483 
	C562.470154,1329.617676 567.599548,1330.730103 571.911682,1332.972534 
	C581.463745,1337.939697 591.831421,1338.964966 602.083618,1340.925903 
	C615.738647,1343.537720 629.842773,1344.639771 642.152893,1352.249756 
	C643.778320,1353.254517 646.515320,1353.409302 648.419617,1352.858643 
	C659.415955,1349.678345 670.240967,1352.424316 681.128601,1353.333496 
	C713.200989,1356.012451 745.299255,1356.932861 777.477173,1355.376221 
	C797.689453,1354.398682 816.513489,1347.417725 835.928711,1342.949219 
	C851.858582,1339.282959 867.744934,1336.934692 884.339233,1340.504639 
	C890.679199,1341.868774 898.086975,1338.978027 904.870667,1337.425537 
	C919.778870,1334.013672 934.436096,1328.515625 949.502808,1327.070801 
	C963.920471,1325.688110 976.285156,1318.037720 990.449768,1316.897217 
	C1014.751709,1314.940796 1037.588379,1307.441284 1059.976807,1298.321777 
	C1078.140747,1290.922974 1096.117920,1283.039551 1114.446899,1276.079346 
	C1135.825317,1267.960815 1156.765137,1259.087891 1175.771240,1246.198486 
	C1177.728027,1244.871460 1179.096436,1242.707520 1180.887695,1241.098633 
	C1183.588745,1238.672607 1186.150879,1235.927856 1189.243896,1234.130127 
	C1205.610474,1224.617554 1220.697998,1213.479858 1234.073486,1200.053833 
	C1235.244873,1198.877930 1236.438232,1197.536133 1237.894653,1196.862061 
	C1247.023804,1192.636963 1250.836304,1184.129639 1255.845581,1176.208618 
	C1263.739502,1163.725952 1272.844604,1152.009277 1281.787476,1139.477051 
	C1277.407471,1132.993652 1279.315308,1126.522095 1285.173218,1120.723145 
	C1291.189697,1114.767212 1297.455688,1109.052490 1303.274658,1102.911987 
	C1307.144897,1098.827881 1310.911621,1094.488037 1313.883179,1089.736328 
	C1329.649414,1064.525391 1341.650269,1037.664062 1347.142090,1008.297729 
	C1348.813721,999.360168 1349.199707,990.113342 1349.419434,980.989929 
	C1349.719116,968.556763 1348.892700,956.261963 1350.958374,943.701660 
	C1352.871704,932.066589 1351.450317,919.775574 1350.651367,907.830078 
	C1349.729980,894.053589 1348.192627,880.295959 1346.297607,866.616821 
	C1345.420166,860.283081 1342.826904,854.206787 1341.427002,847.921265 
	C1339.155151,837.721741 1336.297485,827.528320 1335.380371,817.182190 
	C1334.166138,803.481689 1328.280396,792.425781 1319.693115,782.325562 
	C1318.940186,781.439880 1318.211914,780.233643 1317.224609,779.892212 
	C1305.152466,775.717529 1299.423340,763.645874 1289.090454,757.410339 
	C1283.452881,754.008362 1277.373535,751.345398 1271.547607,748.247070 
	C1266.150757,745.377014 1260.447754,742.883423 1255.573486,739.284424 
	C1250.459717,735.508728 1249.474121,728.572937 1252.030273,722.950867 
	C1254.255615,718.056335 1259.452148,715.002563 1265.755615,716.096069 
	C1270.068115,716.844177 1274.686768,718.256775 1278.200073,720.741699 
	C1290.278931,729.285217 1304.053467,734.299988 1317.161743,740.727478 
	C1335.889893,749.910706 1352.310791,762.270569 1366.165039,777.989319 
	C1368.984009,781.187622 1372.139893,784.402893 1375.776123,786.517151 
	C1401.995117,801.761841 1417.545288,825.717285 1431.529175,851.629944 
	C1444.844604,876.303894 1449.982788,902.431580 1450.795288,929.935181 
	C1450.961304,935.556946 1452.401245,941.133240 1452.707275,946.760254 
	C1453.455933,960.533020 1454.867920,974.369934 1454.213501,988.095276 
	C1453.225098,1008.831665 1449.679688,1029.476196 1449.297241,1050.198120 
	C1449.122192,1059.674194 1448.917358,1069.060791 1447.258789,1078.278809 
	C1444.469116,1093.781982 1442.069336,1109.527344 1437.278198,1124.456055 
	C1430.876465,1144.403931 1422.253418,1163.633301 1414.797852,1183.252319 
	C1412.856201,1188.361694 1411.818970,1193.808105 1410.143188,1199.028198 
	C1409.379761,1201.406006 1409.004517,1204.351196 1405.185181,1204.225220 
	C1404.399292,1204.199463 1403.375244,1205.943115 1402.758179,1207.038574 
	C1387.584106,1233.972778 1369.979004,1259.184448 1350.259644,1283.013428 
	C1341.459839,1293.647461 1333.909546,1305.311890 1325.726074,1316.460205 
	C1317.049072,1328.280762 1309.621582,1341.431763 1299.179932,1351.421753 
	C1289.721680,1360.470947 1282.908691,1372.025513 1272.015015,1379.492432 
	C1261.201904,1386.904297 1250.353394,1394.307617 1239.105835,1401.020142 
	C1235.129150,1403.393555 1229.984741,1404.432251 1225.273926,1404.797485 
	C1219.189941,1405.269409 1214.085205,1407.091919 1209.361572,1410.897583 
	C1182.681030,1432.392578 1150.636230,1441.566162 1118.343140,1449.942871 
	C1084.062500,1458.835327 1049.440552,1466.493652 1015.408020,1476.230103 
	C995.825623,1481.832642 977.131897,1490.528198 957.997742,1497.724121 
	C954.778625,1498.934570 951.369263,1500.320923 948.022278,1500.390259 
	C933.989258,1500.681396 920.887878,1505.104126 907.612305,1508.808960 
	C879.242126,1516.726318 850.106995,1517.544800 820.955200,1518.150513 
	C801.132080,1518.562622 781.306091,1518.830444 761.481628,1519.178833 
	C760.491089,1519.196289 759.383789,1519.109375 758.532471,1519.505005 
	C748.644165,1524.099976 738.250977,1523.552246 727.698547,1523.294067 
	C709.049561,1522.837646 690.363770,1523.648438 671.728394,1522.968628 
	C662.024231,1522.614624 652.394836,1520.211182 642.334717,1518.593262 
z"/>
<path fill="#E71A20" opacity="1.000000" stroke="none" 
	d="
M1020.904541,255.244843 
	C1012.028992,233.542114 998.627502,215.119095 985.205811,196.593216 
	C977.832886,186.416336 972.494934,174.789581 965.742493,164.131363 
	C959.828308,154.796097 955.934753,144.190109 947.773132,136.209503 
	C945.435974,133.924286 943.796082,130.397934 943.030396,127.158470 
	C941.905457,122.399124 944.855896,117.262947 949.134888,115.036423 
	C954.315857,112.340546 958.985962,114.065140 963.736694,116.651115 
	C970.597595,120.385750 977.595703,123.889610 984.673096,127.196938 
	C988.659546,129.059784 992.757446,130.422836 992.892822,135.884888 
	C992.912354,136.673004 993.910217,137.493820 994.562378,138.200760 
	C1004.943665,149.453918 1015.124878,160.904938 1025.859375,171.811203 
	C1029.429565,175.438553 1034.419678,177.673584 1038.778931,180.517044 
	C1041.390503,182.220505 1044.699463,183.331024 1046.566650,185.626083 
	C1066.474243,210.094055 1084.492920,235.907455 1099.668579,263.575317 
	C1102.883667,269.436890 1103.932617,276.471771 1106.103271,282.924469 
	C1109.172852,292.048950 1112.385864,301.125092 1115.483398,310.240295 
	C1117.939575,317.467743 1121.115723,324.563934 1122.588623,331.992737 
	C1129.435181,366.524048 1134.531494,401.286804 1134.255981,436.635681 
	C1134.232788,439.606293 1134.935913,442.578949 1135.246094,445.556458 
	C1136.832031,460.776184 1138.530273,475.985657 1139.950439,491.220947 
	C1145.449219,550.207275 1128.899536,604.939453 1107.414307,658.692810 
	C1105.994629,662.244690 1104.292847,665.695801 1102.535767,669.097534 
	C1100.707397,672.637512 1099.257568,675.818848 1100.202148,680.304504 
	C1100.809204,683.187866 1098.451294,686.784668 1097.134888,689.941772 
	C1096.583008,691.265137 1095.389404,692.385010 1094.313599,693.416016 
	C1082.078369,705.141296 1074.043213,719.645142 1066.565796,734.605347 
	C1055.170654,757.403625 1043.429199,780.028687 1031.905029,802.762939 
	C1026.518188,813.389709 1024.366699,824.740784 1024.589844,836.623169 
	C1024.686890,841.790527 1024.607544,846.956726 1020.786255,851.244263 
	C1019.943237,852.190186 1019.872681,854.050659 1019.873779,855.489807 
	C1019.903503,893.792480 1019.617798,932.102234 1020.339478,970.392700 
	C1020.509460,979.414307 1024.228638,988.346252 1026.082153,997.367249 
	C1027.236450,1002.985779 1028.279663,1008.666199 1028.768555,1014.370667 
	C1029.192993,1019.322693 1029.215698,1023.656738 1033.150879,1027.987305 
	C1036.454468,1031.622925 1037.044800,1037.648682 1039.145264,1042.481689 
	C1040.410278,1045.392334 1041.738037,1048.601562 1043.955811,1050.711182 
	C1050.744507,1057.168701 1056.203491,1064.362915 1058.733521,1073.469116 
	C1060.198486,1078.741943 1059.716675,1083.839966 1055.468018,1087.798950 
	C1051.715454,1091.295532 1047.225830,1092.965088 1042.153076,1091.116333 
	C1040.190430,1090.401001 1037.750000,1089.312988 1036.858643,1087.671753 
	C1034.607666,1083.526978 1030.607300,1082.033081 1027.047729,1079.746094 
	C1017.527893,1073.629883 1007.791199,1067.791626 998.717224,1061.065186 
	C993.910767,1057.502319 990.437317,1052.185547 986.111877,1047.914062 
	C982.962280,1044.803711 979.715759,1041.581665 975.954468,1039.349365 
	C970.128967,1035.891968 965.933105,1031.716553 962.105713,1025.767334 
	C949.861877,1006.736328 942.620361,985.680115 934.704163,964.826843 
	C933.957092,962.858826 932.581665,961.125793 931.471680,959.299744 
	C925.611267,949.658691 918.452148,940.535339 914.345703,930.198730 
	C911.754028,923.674866 909.138123,916.936890 906.927734,910.171387 
	C905.454773,905.663086 904.586121,900.825134 904.312195,896.084778 
	C903.745300,886.275513 903.798645,876.431641 903.517395,866.604248 
	C903.197388,855.420593 903.585205,844.375977 906.367004,833.387817 
	C907.858643,827.495972 908.587891,821.117798 908.104492,815.083862 
	C907.255920,804.492310 909.573914,794.731262 914.404846,785.684448 
	C923.185913,769.240417 932.911194,753.298706 941.621704,736.819275 
	C948.037109,724.682129 956.583618,714.072327 963.959839,702.664673 
	C970.753662,692.157837 975.137329,680.080444 980.460144,668.637756 
	C986.855469,654.889648 993.660095,641.298462 999.326294,627.251648 
	C1009.790588,601.310120 1020.207275,575.313782 1029.416138,548.912109 
	C1037.654053,525.294617 1039.259521,500.322083 1040.871338,475.521545 
	C1044.062012,426.429565 1044.401001,377.288818 1043.209351,328.118866 
	C1042.862183,313.790619 1040.386353,299.903198 1035.437378,286.552673 
	C1033.214966,280.557648 1029.369507,275.183228 1026.594849,269.367767 
	C1024.469482,264.913239 1022.868652,260.208466 1020.904541,255.244843 
z"/>
<path fill="#E71A20" opacity="1.000000" stroke="none" 
	d="
M618.447632,352.474304 
	C620.894836,359.977631 623.245728,367.099121 625.522888,374.244080 
	C630.674927,390.409424 633.576721,406.749390 632.093384,423.933716 
	C631.377747,432.223694 632.398621,440.897522 634.063965,449.107300 
	C636.974365,463.454620 636.130920,477.395142 631.219910,490.947876 
	C624.608948,509.191925 622.310669,528.028870 620.812805,547.242554 
	C617.446289,590.426636 607.751770,631.907043 584.009277,668.984741 
	C570.986572,689.321716 557.672424,709.472595 544.416443,729.659363 
	C539.477905,737.179932 534.280396,744.530334 529.326660,752.041199 
	C528.474487,753.333191 527.445496,755.332214 527.868896,756.513428 
	C531.824707,767.549133 529.778564,778.466553 526.970703,789.138062 
	C518.380005,821.787842 514.367920,854.699768 516.587463,888.605164 
	C517.486206,902.334045 514.351196,916.398621 512.429626,930.223938 
	C509.524261,951.127136 509.327881,972.073486 510.325012,993.075012 
	C510.736755,1001.747009 513.644226,1009.698059 518.049194,1017.119385 
	C523.875671,1026.935791 528.254761,1037.285522 530.629456,1048.522461 
	C533.357788,1061.432617 541.442566,1071.222778 550.206848,1080.512207 
	C556.152710,1086.814331 556.889343,1094.258545 552.030884,1099.778442 
	C547.167236,1105.304443 538.022766,1105.709595 531.718994,1100.655518 
	C530.550232,1099.718384 529.204407,1098.868774 528.360840,1097.680298 
	C519.868042,1085.715454 507.895416,1077.350220 497.260803,1067.625000 
	C479.818787,1051.674316 466.136993,1032.886230 455.187469,1012.121826 
	C441.983398,987.081970 427.888092,962.430298 419.034119,935.333618 
	C418.155792,932.645508 417.363068,929.910156 416.799408,927.142029 
	C414.904816,917.836731 412.028900,909.030029 408.137665,900.213135 
	C401.884247,886.044006 398.296204,870.891785 400.194916,854.967224 
	C402.069153,839.247925 403.272217,823.444275 405.374298,807.758606 
	C406.358398,800.414978 408.792175,793.268311 410.511108,786.018677 
	C411.005890,783.932007 411.766632,781.763550 411.615814,779.690002 
	C408.687592,739.435364 425.102844,706.073303 448.529785,675.130066 
	C449.795349,673.458435 450.051788,671.030823 450.814148,668.968506 
	C452.179138,665.276001 453.163116,661.368042 455.046478,657.959045 
	C458.018402,652.579834 462.326874,647.860046 464.794617,642.295654 
	C473.184814,623.377014 486.256561,607.825317 499.861847,592.723755 
	C506.643372,585.196350 511.170197,576.666321 514.453003,567.374023 
	C536.749695,504.260223 546.909180,439.598114 538.597107,372.695068 
	C536.667969,357.167725 534.076965,341.723633 531.998718,326.213318 
	C531.004944,318.796265 530.414612,311.320953 529.787842,303.859741 
	C528.353027,286.780151 520.518372,272.071503 512.842163,257.260773 
	C509.793640,251.378769 507.235077,245.242722 504.457306,239.220535 
	C502.878387,235.797424 501.752289,232.064240 499.645660,229.005554 
	C494.260986,221.187332 488.270691,213.787277 482.850983,205.991699 
	C478.770691,200.122696 474.904907,194.061493 471.468353,187.797958 
	C466.121979,178.053406 461.436218,167.944199 456.015320,158.243912 
	C454.110199,154.834854 450.652588,152.330643 448.298523,149.123581 
	C446.372528,146.499619 444.305511,143.612747 443.598938,140.543625 
	C442.461823,135.604385 444.776947,131.479248 448.807831,128.395172 
	C453.190735,125.041710 457.707855,126.457123 461.997894,128.339539 
	C464.051880,129.240799 465.950378,130.912689 467.423065,132.654999 
	C477.179962,144.198410 487.982239,155.095932 496.103668,167.710602 
	C502.886383,178.245926 511.991486,186.397583 519.338989,196.073227 
	C527.759827,207.162201 538.143066,216.197891 546.953857,226.622543 
	C556.946838,238.445801 564.163269,252.617203 572.566101,265.780945 
	C573.364075,267.030975 573.715454,268.736816 574.781006,269.618439 
	C583.920654,277.180573 589.452759,287.406555 594.362366,297.714752 
	C602.876953,315.592041 610.386658,333.947937 618.447632,352.474304 
z"/>
</svg>