<svg version="1.1" id="Layer_1" xmlns="http://www.w3.org/2000/svg" xmlns:xlink="http://www.w3.org/1999/xlink" x="0px" y="0px"
	 width="100%" viewBox="0 0 1524 1524" enable-background="new 0 0 1524 1524" xml:space="preserve">
<path fill="#FFFFFF" opacity="1.000000" stroke="none" 
	d="
M1525.000000,1053.000000 
	C1525.000000,1210.322876 1525.000000,1367.645752 1525.000000,1524.984375 
	C1017.044312,1524.984375 509.088593,1524.984375 1.066445,1524.984375 
	C1.066445,1017.078125 1.066445,509.156250 1.066445,1.117178 
	C508.888031,1.117178 1016.776123,1.117178 1525.000000,1.117178 
	C1525.000000,329.699341 1525.000000,658.398743 1524.743774,987.250671 
	C1522.808594,978.924683 1521.937378,970.181702 1519.267090,962.027893 
	C1514.939209,948.812805 1509.343506,936.016663 1504.522705,922.955200 
	C1503.854126,921.143921 1503.791626,918.345398 1504.753052,916.832947 
	C1508.296509,911.258362 1508.554932,905.641479 1504.992310,900.418762 
	C1498.157593,890.399292 1495.039062,879.197754 1492.719238,867.517700 
	C1491.082153,859.274658 1487.728638,851.879150 1480.684448,846.326538 
	C1474.101318,841.137329 1469.908081,834.007019 1465.970093,826.496460 
	C1455.793579,807.087158 1445.745117,787.494019 1433.836548,769.148376 
	C1425.199463,755.842468 1412.890137,744.973450 1403.603760,732.024170 
	C1386.762085,708.539856 1368.243774,686.587402 1348.228760,665.796204 
	C1333.216309,650.201721 1315.224243,639.660400 1294.844482,632.891479 
	C1287.351318,630.402771 1280.977783,632.074951 1276.258545,638.492371 
	C1274.338989,641.102600 1272.034790,642.364258 1268.935059,642.745117 
	C1266.967896,642.986877 1264.946777,643.364868 1263.123535,644.107727 
	C1253.977905,647.834045 1247.415405,653.488586 1246.637329,664.350525 
	C1246.014282,673.045349 1247.956055,681.053223 1252.320557,688.222229 
	C1263.983276,707.379456 1271.936279,728.117859 1279.728027,749.004578 
	C1285.974487,765.749329 1293.527222,781.835510 1307.437378,793.979980 
	C1309.380249,795.676208 1310.972778,798.067078 1312.023071,800.447205 
	C1325.077637,830.031616 1346.548950,854.432129 1362.549927,882.269470 
	C1371.602295,898.018311 1379.241577,913.837341 1384.554688,931.024658 
	C1387.516846,940.606995 1387.715576,950.446594 1386.534058,960.130676 
	C1384.116577,979.944763 1380.838257,999.652710 1378.018921,1019.419312 
	C1375.457642,1037.375732 1374.783813,1055.813721 1370.186890,1073.223145 
	C1360.668213,1109.271484 1342.627197,1140.809814 1311.652588,1162.927246 
	C1285.052612,1181.921143 1259.170288,1201.509155 1235.764526,1224.509521 
	C1218.704712,1241.274048 1197.570068,1251.957764 1174.307251,1258.252197 
	C1166.570923,1260.345337 1158.249634,1262.021851 1154.210327,1270.575684 
	C1153.675659,1271.708252 1151.880615,1272.356201 1150.554810,1272.988281 
	C1130.541626,1282.526733 1109.274780,1287.985352 1087.451172,1290.778687 
	C1049.983887,1295.574707 1012.930115,1302.620850 975.792358,1309.335083 
	C962.654236,1311.710449 949.024719,1311.832886 935.603455,1312.070312 
	C914.325134,1312.447021 893.027100,1311.729980 871.749695,1312.129639 
	C861.461914,1312.322754 851.216675,1314.659424 840.926880,1314.888306 
	C808.777283,1315.604004 776.615295,1316.099731 744.458618,1316.075073 
	C709.158997,1316.047974 674.045349,1314.789917 639.030212,1308.351318 
	C612.629700,1303.496582 585.441467,1303.073853 558.703796,1299.849854 
	C541.918823,1297.825928 525.209656,1294.937866 509.304993,1288.477051 
	C501.650421,1285.367554 493.606445,1282.625488 485.483124,1281.365601 
	C454.293427,1276.528564 426.232666,1264.229736 400.037048,1247.133911 
	C378.657288,1233.181030 359.017303,1217.499146 346.714569,1194.304565 
	C345.157196,1191.368408 342.413513,1188.557251 339.519958,1186.939209 
	C333.558563,1183.605835 331.245056,1177.720703 330.497375,1172.206177 
	C329.654480,1165.989258 327.317596,1160.836792 324.628479,1155.513916 
	C320.832642,1148.000244 317.060455,1140.464722 313.603729,1132.791870 
	C308.339905,1121.107910 306.288910,1108.738037 306.243561,1095.955811 
	C306.148407,1069.143433 306.233032,1042.325195 305.683685,1015.520874 
	C305.066223,985.393677 309.451477,955.731262 314.273926,926.226440 
	C316.824860,910.619080 322.408600,895.413330 327.543182,880.339600 
	C344.624847,830.193115 362.080292,780.173645 379.487518,730.138489 
	C384.748383,715.016724 386.228882,699.742310 383.045288,683.952820 
	C379.670990,667.217468 367.190033,654.484009 350.496582,651.834839 
	C344.435516,650.873047 338.256744,650.590576 332.118774,650.202271 
	C328.926697,650.000305 325.245056,649.231750 322.574493,650.450317 
	C306.235260,657.905884 291.228302,667.560913 279.581055,681.418335 
	C253.438141,712.522278 227.423431,743.741028 201.867203,775.326172 
	C195.456467,783.249268 191.852142,793.451111 185.402405,801.332764 
	C175.909927,812.932678 170.132660,826.093140 164.867554,839.812866 
	C151.681335,874.173401 147.882889,910.550598 143.440781,946.495911 
	C138.975571,982.628296 137.664078,1019.214844 136.314529,1055.652222 
	C134.440506,1106.249756 139.547455,1156.483154 147.266724,1206.441040 
	C149.231033,1219.153809 155.680099,1230.041016 164.824951,1238.801025 
	C168.769516,1242.579590 171.873795,1246.472412 174.285461,1251.195801 
	C179.117157,1260.658569 185.656403,1268.754761 193.828003,1275.572266 
	C231.980469,1307.402832 274.184845,1333.120972 318.205261,1355.657104 
	C342.772064,1368.233887 367.477631,1380.226929 390.308136,1395.924683 
	C402.735870,1404.469727 415.790680,1412.421875 429.403168,1418.865845 
	C473.789490,1439.877930 521.006531,1452.555176 568.560242,1463.912231 
	C606.639343,1473.006592 645.545044,1475.237915 684.505432,1477.172363 
	C718.594788,1478.864990 752.667114,1481.151611 786.685791,1483.925659 
	C808.405579,1485.696777 829.980042,1489.202271 851.687134,1491.195068 
	C861.888489,1492.131470 872.328613,1490.497314 882.523682,1491.466919 
	C927.232178,1495.718140 971.471008,1494.280518 1015.759338,1485.750244 
	C1046.415161,1479.845581 1075.872314,1468.988403 1107.298096,1466.043823 
	C1125.672729,1464.322144 1143.777344,1458.686523 1161.737793,1453.829590 
	C1185.454590,1447.415894 1209.117188,1440.653809 1232.401123,1432.843506 
	C1246.029541,1428.271973 1258.920532,1421.465942 1272.031494,1415.422363 
	C1274.337646,1414.359497 1276.694824,1412.460327 1277.983276,1410.318481 
	C1281.532227,1404.419800 1286.767212,1400.756836 1292.828369,1398.251831 
	C1303.093994,1394.008911 1311.595947,1387.403687 1318.575806,1378.999512 
	C1334.173828,1360.218872 1352.883057,1345.235840 1373.152832,1331.811279 
	C1389.080811,1321.262329 1405.707397,1311.257568 1418.100098,1296.346802 
	C1426.798462,1285.881104 1434.012939,1274.195068 1442.428345,1263.476807 
	C1448.601562,1255.614502 1455.086426,1248.082886 1458.553589,1238.509644 
	C1460.646362,1232.731812 1463.021973,1227.053467 1465.014038,1221.242432 
	C1471.515503,1202.277344 1479.881348,1184.358643 1491.630615,1167.917847 
	C1497.369141,1159.887939 1501.946167,1150.801514 1505.738159,1141.650024 
	C1516.356323,1116.024292 1520.517578,1088.912720 1522.766357,1061.434204 
	C1522.999878,1058.581055 1524.231567,1055.809448 1525.000000,1053.000000 
M931.486023,503.163544 
	C924.283142,494.172119 917.642334,484.940338 914.965393,473.349884 
	C914.350342,470.686676 911.533875,468.596893 910.049316,466.056915 
	C906.233887,459.528595 900.549683,453.213226 899.464783,446.215485 
	C898.378113,439.206085 896.834290,432.880920 892.935974,427.339813 
	C888.565063,421.127075 883.330933,415.523376 878.500305,409.631836 
	C873.544617,403.587799 868.825134,397.335999 863.635193,391.501709 
	C857.063660,384.114441 849.677612,377.419312 843.436096,369.777771 
	C832.211365,356.035126 825.853149,339.798279 820.940369,322.904205 
	C819.473816,317.860992 817.501404,312.902344 815.199280,308.178589 
	C811.347168,300.274384 806.206543,292.910156 803.088684,284.752777 
	C794.107483,261.254425 794.630859,236.645340 797.867126,212.342361 
	C799.391357,200.895813 804.767334,189.957199 808.450195,178.805679 
	C809.849060,174.570114 811.407227,170.387375 812.868835,166.172256 
	C813.996399,162.920364 815.024536,159.632828 816.207336,156.401550 
	C818.078857,151.288895 820.886292,146.360764 821.827759,141.091873 
	C827.139893,111.363594 826.568665,81.376366 824.547913,51.411655 
	C824.202087,46.284023 823.164795,40.371902 820.266113,36.422974 
	C814.479980,28.540321 805.819641,23.387938 795.889343,23.757868 
	C785.684021,24.138048 775.480103,26.267014 765.447205,28.427954 
	C762.743591,29.010263 759.350281,32.107975 758.590393,34.724010 
	C757.286011,39.214695 757.898743,44.163383 753.898071,47.850784 
	C752.942383,48.731647 753.009583,51.000797 753.042053,52.622700 
	C753.138733,57.449005 753.484314,62.269764 753.666321,67.095184 
	C753.747375,69.244461 754.372559,71.729729 753.543579,73.495872 
	C749.691650,81.702538 750.239868,90.338509 750.201721,98.994614 
	C750.115479,118.561707 744.669861,136.629272 734.606201,153.370163 
	C730.849731,159.619080 726.483887,165.658508 723.798218,172.355835 
	C720.177124,181.386002 717.173340,190.479507 712.380432,199.177704 
	C707.093933,208.771576 703.832153,219.727509 701.137939,230.454208 
	C694.712952,256.033783 694.446716,282.251312 695.065552,308.435028 
	C695.423340,323.571625 699.230164,337.927124 706.416199,351.362366 
	C714.087769,365.705353 726.182617,376.440369 736.892761,388.181519 
	C753.873413,406.796600 770.312378,425.690521 784.175781,446.824219 
	C788.183838,452.934235 794.382996,457.602203 799.546631,462.961212 
	C801.365967,464.849335 803.384216,466.635620 804.804565,468.800995 
	C808.587036,474.567413 811.396057,481.115143 815.839417,486.278748 
	C829.862793,502.574829 844.012695,518.745300 855.262939,537.151794 
	C863.803833,551.125610 871.734314,565.611450 872.465820,582.356873 
	C873.005554,594.713196 873.207947,606.939758 877.570740,618.701355 
	C878.074341,620.058838 878.031555,621.660400 878.048096,623.150940 
	C878.253906,641.646973 878.465454,660.143127 878.582031,678.639832 
	C878.628296,685.982056 877.931091,693.170410 874.909546,700.078003 
	C866.595032,719.086182 858.840942,738.347168 850.162659,757.184387 
	C846.969116,764.116394 842.602539,770.431763 841.818481,778.316650 
	C841.645508,780.056213 840.941284,782.076660 839.787231,783.326538 
	C835.043091,788.464355 831.637878,794.134155 830.541199,801.180542 
	C830.321350,802.592773 828.690674,803.876221 827.528931,805.037415 
	C810.547119,822.012329 793.351868,838.816223 785.146301,862.301025 
	C784.854492,863.136047 783.695129,864.327881 783.035828,864.269592 
	C777.934814,863.818604 777.412537,867.421326 777.037598,870.942200 
	C776.617371,874.888611 777.560242,879.298218 776.115173,882.756226 
	C772.179504,892.174072 768.516968,902.094543 762.549255,910.197876 
	C747.835754,930.176331 748.174561,951.719055 753.825012,973.990051 
	C755.241577,979.573425 758.674683,985.023132 762.410095,989.511475 
	C765.028931,992.658203 769.589417,995.593262 773.534546,995.967163 
	C785.079590,997.061462 796.775452,997.431091 808.365845,996.954346 
	C821.907227,996.397461 834.668518,992.411865 845.203918,983.439636 
	C859.200500,971.519958 868.892700,956.152832 875.146545,939.294983 
	C877.844421,932.022583 881.334106,925.488220 885.019470,918.961548 
	C897.771362,896.378174 904.240479,871.072327 916.079834,848.109253 
	C916.976624,846.369812 917.498901,844.332092 917.739990,842.376892 
	C919.283875,829.855774 924.242798,818.308350 931.165710,808.318604 
	C938.403442,797.874573 940.645630,786.679199 942.072144,774.770264 
	C942.341309,772.523010 943.361755,770.346985 944.165344,768.186401 
	C945.748718,763.929382 947.562927,759.753540 949.017822,755.454773 
	C950.284302,751.712463 951.010437,747.786072 952.299255,744.052856 
	C953.674438,740.069580 955.792908,736.320007 956.932495,732.283691 
	C958.596619,726.390259 958.678833,719.858948 961.239685,714.454651 
	C965.081543,706.347229 966.669556,698.214783 966.487000,689.393127 
	C966.421265,686.218933 967.560364,682.959290 968.493103,679.841492 
	C969.470825,676.573120 971.456055,673.515320 971.940247,670.210083 
	C972.806274,664.297791 972.799622,658.262451 973.296082,652.290100 
	C974.192139,641.510986 972.972900,630.403809 978.968445,620.449158 
	C981.850586,615.663696 978.543091,611.354797 977.145264,606.789246 
	C971.538513,588.476440 964.685547,570.752197 955.136047,554.078674 
	C950.269409,545.581604 945.734436,536.860596 941.621094,527.976196 
	C937.974365,520.099731 935.118042,511.857330 931.486023,503.163544 
M559.058960,777.564697 
	C549.637085,786.694214 540.520203,796.170288 530.682373,804.827087 
	C524.484741,810.280701 516.985596,814.224365 510.460358,819.342773 
	C495.686340,830.931519 492.057617,846.799805 494.256439,864.519348 
	C494.534576,866.760925 496.027771,869.362366 497.773834,870.819519 
	C504.079834,876.081665 511.262756,879.202820 519.800171,878.064209 
	C524.567932,877.428406 529.366455,876.593018 534.151306,876.591492 
	C553.123352,876.585388 572.095459,876.984375 591.067749,877.007080 
	C601.502502,877.019531 610.569519,873.322510 617.956726,865.796326 
	C621.106873,862.586914 624.525696,859.608643 627.418091,856.183838 
	C654.307922,824.343994 678.169861,790.312500 700.184021,754.967102 
	C701.902954,752.207092 703.542419,748.985474 703.841858,745.846924 
	C704.331482,740.716370 706.198853,736.534058 709.663879,732.971375 
	C714.485596,728.013977 716.808594,722.065491 718.226013,715.337097 
	C719.183105,710.793518 721.884033,706.622131 723.763000,702.266174 
	C725.125732,699.106750 727.279358,695.994934 727.573181,692.726440 
	C728.283264,684.827942 731.498840,678.101318 735.199707,671.326660 
	C737.803467,666.560303 739.976013,661.444214 741.515564,656.240173 
	C743.388306,649.909668 744.777039,643.377136 745.706787,636.836975 
	C749.175598,612.437195 749.553223,588.089722 743.879333,563.876770 
	C743.195801,560.960022 743.342712,557.683044 743.835327,554.693420 
	C744.670837,549.622620 744.120544,545.466187 739.172241,542.713745 
	C738.142639,542.141052 737.414429,540.881165 736.755737,539.809814 
	C731.632263,531.475891 727.120911,522.700500 721.368652,514.830200 
	C702.425171,488.911804 680.330261,465.838074 656.272522,444.616547 
	C654.797058,443.314941 653.126526,441.896851 652.368103,440.171844 
	C644.249023,421.705750 631.634277,406.134827 620.223877,389.784088 
	C609.665344,374.654083 598.492004,359.851044 594.301514,341.296143 
	C592.638000,333.930359 588.687134,327.808380 583.261047,322.670868 
	C576.048279,315.841797 571.825928,307.500061 568.817017,298.059174 
	C563.605896,281.708527 562.036133,264.883636 560.544678,247.978104 
	C558.677124,226.809433 559.233459,206.219269 571.650391,187.567200 
	C574.097290,183.891617 574.313599,178.777145 575.819824,174.416519 
	C577.357178,169.965927 578.582275,165.215363 581.094116,161.341934 
	C584.264221,156.453506 585.497803,151.658112 583.629822,146.274704 
	C581.728271,140.794830 579.385254,135.469513 577.333313,130.039597 
	C576.768066,128.543854 575.992249,126.809280 576.267456,125.366318 
	C577.991882,116.323959 572.162598,112.090492 565.695862,108.237808 
	C560.596741,105.199898 555.563660,106.818787 551.816650,110.194969 
	C544.702759,116.604851 538.212158,123.715393 531.588745,130.655334 
	C529.543579,132.798233 528.370422,136.055740 526.007507,137.566376 
	C512.637634,146.113831 506.299652,158.931671 504.014374,173.888474 
	C502.911163,181.108566 499.977325,186.999313 495.906189,192.792145 
	C492.881165,197.096436 490.450317,201.860718 488.120422,206.599838 
	C485.505920,211.917923 483.790314,217.722870 480.819672,222.811646 
	C474.479187,233.672943 469.226562,244.968628 466.974548,257.328308 
	C463.615265,275.765167 463.819366,294.413971 464.431122,313.100616 
	C464.838837,325.554047 468.008118,336.942871 473.851440,347.860413 
	C496.417053,390.021454 524.655457,427.846863 559.290161,460.885010 
	C562.599609,464.041870 565.208374,467.964813 567.964600,471.664581 
	C581.173767,489.395538 594.035645,507.396484 607.674622,524.788879 
	C611.513916,529.684753 615.368042,534.285034 617.349365,540.196350 
	C618.984131,545.073669 620.790710,549.926147 621.960632,554.920959 
	C627.381348,578.063171 626.284180,601.556763 625.572693,625.043945 
	C625.004517,643.799988 619.565308,660.903503 609.954102,676.969238 
	C607.696106,680.743530 606.668701,685.751587 606.592957,690.217834 
	C606.478149,696.992920 604.632263,702.501343 599.747131,707.214417 
	C597.884094,709.011902 595.761902,711.390808 595.416138,713.748047 
	C594.459351,720.270935 590.586914,724.848694 586.823547,729.750549 
	C584.533142,732.733826 582.626526,736.216370 581.389954,739.767944 
	C576.552246,753.662354 568.383301,765.530212 559.058960,777.564697 
M976.568298,311.774414 
	C982.568970,319.310394 986.693542,327.673798 988.472229,337.234436 
	C990.096619,345.965546 993.076111,354.170013 998.490540,361.441284 
	C1000.099365,363.601837 1000.923279,366.563538 1001.432800,369.284393 
	C1002.835510,376.773743 1003.591675,384.391907 1005.184753,391.834717 
	C1006.036682,395.815063 1007.221313,400.286102 1009.764282,403.234589 
	C1016.686707,411.260529 1023.671631,419.553101 1031.992798,425.977081 
	C1044.558105,435.677460 1051.295044,448.951996 1057.519775,462.637756 
	C1059.769653,467.584351 1060.399658,473.074524 1065.589111,476.351349 
	C1067.088379,477.298126 1068.059570,479.515961 1068.681641,481.351471 
	C1077.338379,506.894623 1085.696045,532.730591 1087.661255,559.658264 
	C1089.548340,585.517334 1088.755127,611.585510 1088.772705,637.562073 
	C1088.782837,652.612183 1083.255737,665.769409 1073.482788,677.211975 
	C1072.018433,678.926575 1071.009155,681.115173 1070.130127,683.226440 
	C1068.375732,687.440552 1066.967529,691.798950 1065.209473,696.011475 
	C1063.617554,699.825928 1061.157593,703.370056 1060.124512,707.307373 
	C1057.724243,716.456238 1055.903931,725.759766 1053.952026,735.022339 
	C1053.134888,738.899841 1053.871338,743.934875 1051.657471,746.527527 
	C1045.710815,753.491638 1043.438110,761.999451 1039.524902,769.817383 
	C1037.197021,774.468323 1034.204712,779.120178 1030.449707,782.639221 
	C1025.746460,787.046875 1022.389282,791.840942 1020.986816,798.046509 
	C1018.836548,807.561157 1017.040649,816.833374 1017.688538,826.984497 
	C1018.304138,836.629395 1014.814270,846.566406 1012.913574,856.332947 
	C1011.170471,865.289673 1008.906189,874.148560 1007.295349,883.126648 
	C1005.416748,893.597168 1008.690552,902.233643 1017.755554,908.222778 
	C1021.627075,910.780579 1025.566528,913.304993 1029.713867,915.363342 
	C1045.150757,923.024536 1056.745483,920.982910 1069.105225,908.824463 
	C1070.055176,907.889954 1071.495605,906.979675 1072.755493,906.909546 
	C1083.257080,906.324341 1085.447632,904.540344 1089.061035,894.281738 
	C1090.650879,889.767883 1092.337036,884.782837 1097.627441,883.326477 
	C1103.177490,881.798706 1106.949463,878.287842 1109.952148,873.791626 
	C1115.213013,865.913818 1120.319458,857.930786 1125.384888,849.924866 
	C1134.030640,836.260071 1140.082886,821.721130 1141.437134,805.333252 
	C1141.894775,799.795166 1143.337158,794.066467 1145.641113,789.024231 
	C1148.302612,783.199890 1150.721680,777.556396 1151.039551,771.070923 
	C1151.131348,769.199280 1151.888184,766.940613 1153.139526,765.612915 
	C1161.675293,756.556274 1165.152710,745.056580 1166.731689,733.475281 
	C1168.859497,717.867981 1168.892700,701.980896 1169.998901,686.226074 
	C1170.498901,679.105042 1171.161865,671.975342 1172.211182,664.918091 
	C1173.579346,655.717285 1175.827148,646.635681 1176.946045,637.411804 
	C1179.333496,617.731140 1182.814819,598.262512 1189.152466,579.495911 
	C1194.110596,564.814270 1197.587769,550.084106 1196.467529,534.523560 
	C1196.245850,531.444031 1196.413818,527.894897 1194.944458,525.432129 
	C1191.032715,518.876160 1189.158691,511.809601 1187.338013,504.527985 
	C1185.371826,496.664368 1182.524658,489.010590 1179.826416,481.348175 
	C1179.198242,479.564301 1177.583130,478.139099 1176.482666,476.508148 
	C1173.641846,472.298096 1170.786499,468.096436 1168.027344,463.832947 
	C1165.179565,459.432678 1162.784790,454.690735 1159.561279,450.594604 
	C1155.699585,445.687744 1150.920288,441.506805 1147.009644,436.633453 
	C1143.929810,432.795715 1141.915039,428.100677 1138.818726,424.279510 
	C1127.381592,410.165283 1117.781372,395.607269 1112.082764,377.649048 
	C1107.114746,361.993408 1096.528809,348.128967 1088.508423,333.427643 
	C1086.381958,329.529877 1084.385864,325.540192 1082.640503,321.459900 
	C1079.329590,313.720245 1076.203125,305.900482 1073.098389,298.074982 
	C1072.497437,296.560547 1072.160522,294.884308 1072.015625,293.254761 
	C1070.732666,278.824951 1069.557739,264.385529 1068.279297,249.955292 
	C1066.047485,224.762894 1069.270020,200.585785 1080.780273,177.716095 
	C1086.043457,167.258820 1086.161255,155.849136 1084.863281,144.468826 
	C1084.633667,142.455688 1083.440674,140.384048 1082.215942,138.682587 
	C1077.451660,132.064514 1071.272461,128.258423 1063.259888,125.322952 
	C1050.294922,120.573143 1037.556274,120.090378 1024.503662,122.177979 
	C1017.363037,123.320045 1009.601135,125.080910 1005.826172,132.269485 
	C1002.467468,138.665421 999.332336,145.474823 997.811096,152.473969 
	C995.168274,164.633072 993.808350,177.073654 991.988770,189.407776 
	C991.284851,194.179428 990.562744,198.511261 986.011230,201.808105 
	C983.758667,203.439713 982.271057,207.556870 982.244629,210.565323 
	C982.163696,219.768402 981.171082,228.665207 978.190552,237.435150 
	C977.104126,240.631699 977.531128,244.341797 977.261658,247.817139 
	C977.133362,249.473221 977.355835,251.264038 976.798035,252.762512 
	C971.663574,266.555481 972.131714,280.906738 972.812683,295.184204 
	C973.068298,300.542542 975.000549,305.820892 976.568298,311.774414 
M517.299255,89.282166 
	C517.837463,87.966454 518.375671,86.650742 518.913940,85.335037 
	C517.379395,84.994118 515.519104,83.978752 514.408386,84.515259 
	C513.434387,84.985748 513.301453,87.197418 512.797058,88.639999 
	C514.115173,89.008743 515.433350,89.377487 517.299255,89.282166 
z"/>
<path fill="#FF0000" opacity="1.000000" stroke="none" 
	d="
M1525.000000,1052.531372 
	C1524.231567,1055.809448 1522.999878,1058.581055 1522.766357,1061.434204 
	C1520.517578,1088.912720 1516.356323,1116.024292 1505.738159,1141.650024 
	C1501.946167,1150.801514 1497.369141,1159.887939 1491.630615,1167.917847 
	C1479.881348,1184.358643 1471.515503,1202.277344 1465.014038,1221.242432 
	C1463.021973,1227.053467 1460.646362,1232.731812 1458.553589,1238.509644 
	C1455.086426,1248.082886 1448.601562,1255.614502 1442.428345,1263.476807 
	C1434.012939,1274.195068 1426.798462,1285.881104 1418.100098,1296.346802 
	C1405.707397,1311.257568 1389.080811,1321.262329 1373.152832,1331.811279 
	C1352.883057,1345.235840 1334.173828,1360.218872 1318.575806,1378.999512 
	C1311.595947,1387.403687 1303.093994,1394.008911 1292.828369,1398.251831 
	C1286.767212,1400.756836 1281.532227,1404.419800 1277.983276,1410.318481 
	C1276.694824,1412.460327 1274.337646,1414.359497 1272.031494,1415.422363 
	C1258.920532,1421.465942 1246.029541,1428.271973 1232.401123,1432.843506 
	C1209.117188,1440.653809 1185.454590,1447.415894 1161.737793,1453.829590 
	C1143.777344,1458.686523 1125.672729,1464.322144 1107.298096,1466.043823 
	C1075.872314,1468.988403 1046.415161,1479.845581 1015.759338,1485.750244 
	C971.471008,1494.280518 927.232178,1495.718140 882.523682,1491.466919 
	C872.328613,1490.497314 861.888489,1492.131470 851.687134,1491.195068 
	C829.980042,1489.202271 808.405579,1485.696777 786.685791,1483.925659 
	C752.667114,1481.151611 718.594788,1478.864990 684.505432,1477.172363 
	C645.545044,1475.237915 606.639343,1473.006592 568.560242,1463.912231 
	C521.006531,1452.555176 473.789490,1439.877930 429.403168,1418.865845 
	C415.790680,1412.421875 402.735870,1404.469727 390.308136,1395.924683 
	C367.477631,1380.226929 342.772064,1368.233887 318.205261,1355.657104 
	C274.184845,1333.120972 231.980469,1307.402832 193.828003,1275.572266 
	C185.656403,1268.754761 179.117157,1260.658569 174.285461,1251.195801 
	C171.873795,1246.472412 168.769516,1242.579590 164.824951,1238.801025 
	C155.680099,1230.041016 149.231033,1219.153809 147.266724,1206.441040 
	C139.547455,1156.483154 134.440506,1106.249756 136.314529,1055.652222 
	C137.664078,1019.214844 138.975571,982.628296 143.440781,946.495911 
	C147.882889,910.550598 151.681335,874.173401 164.867554,839.812866 
	C170.132660,826.093140 175.909927,812.932678 185.402405,801.332764 
	C191.852142,793.451111 195.456467,783.249268 201.867203,775.326172 
	C227.423431,743.741028 253.438141,712.522278 279.581055,681.418335 
	C291.228302,667.560913 306.235260,657.905884 322.574493,650.450317 
	C325.245056,649.231750 328.926697,650.000305 332.118774,650.202271 
	C338.256744,650.590576 344.435516,650.873047 350.496582,651.834839 
	C367.190033,654.484009 379.670990,667.217468 383.045288,683.952820 
	C386.228882,699.742310 384.748383,715.016724 379.487518,730.138489 
	C362.080292,780.173645 344.624847,830.193115 327.543182,880.339600 
	C322.408600,895.413330 316.824860,910.619080 314.273926,926.226440 
	C309.451477,955.731262 305.066223,985.393677 305.683685,1015.520874 
	C306.233032,1042.325195 306.148407,1069.143433 306.243561,1095.955811 
	C306.288910,1108.738037 308.339905,1121.107910 313.603729,1132.791870 
	C317.060455,1140.464722 320.832642,1148.000244 324.628479,1155.513916 
	C327.317596,1160.836792 329.654480,1165.989258 330.497375,1172.206177 
	C331.245056,1177.720703 333.558563,1183.605835 339.519958,1186.939209 
	C342.413513,1188.557251 345.157196,1191.368408 346.714569,1194.304565 
	C359.017303,1217.499146 378.657288,1233.181030 400.037048,1247.133911 
	C426.232666,1264.229736 454.293427,1276.528564 485.483124,1281.365601 
	C493.606445,1282.625488 501.650421,1285.367554 509.304993,1288.477051 
	C525.209656,1294.937866 541.918823,1297.825928 558.703796,1299.849854 
	C585.441467,1303.073853 612.629700,1303.496582 639.030212,1308.351318 
	C674.045349,1314.789917 709.158997,1316.047974 744.458618,1316.075073 
	C776.615295,1316.099731 808.777283,1315.604004 840.926880,1314.888306 
	C851.216675,1314.659424 861.461914,1312.322754 871.749695,1312.129639 
	C893.027100,1311.729980 914.325134,1312.447021 935.603455,1312.070312 
	C949.024719,1311.832886 962.654236,1311.710449 975.792358,1309.335083 
	C1012.930115,1302.620850 1049.983887,1295.574707 1087.451172,1290.778687 
	C1109.274780,1287.985352 1130.541626,1282.526733 1150.554810,1272.988281 
	C1151.880615,1272.356201 1153.675659,1271.708252 1154.210327,1270.575684 
	C1158.249634,1262.021851 1166.570923,1260.345337 1174.307251,1258.252197 
	C1197.570068,1251.957764 1218.704712,1241.274048 1235.764526,1224.509521 
	C1259.170288,1201.509155 1285.052612,1181.921143 1311.652588,1162.927246 
	C1342.627197,1140.809814 1360.668213,1109.271484 1370.186890,1073.223145 
	C1374.783813,1055.813721 1375.457642,1037.375732 1378.018921,1019.419312 
	C1380.838257,999.652710 1384.116577,979.944763 1386.534058,960.130676 
	C1387.715576,950.446594 1387.516846,940.606995 1384.554688,931.024658 
	C1379.241577,913.837341 1371.602295,898.018311 1362.549927,882.269470 
	C1346.548950,854.432129 1325.077637,830.031616 1312.023071,800.447205 
	C1310.972778,798.067078 1309.380249,795.676208 1307.437378,793.979980 
	C1293.527222,781.835510 1285.974487,765.749329 1279.728027,749.004578 
	C1271.936279,728.117859 1263.983276,707.379456 1252.320557,688.222229 
	C1247.956055,681.053223 1246.014282,673.045349 1246.637329,664.350525 
	C1247.415405,653.488586 1253.977905,647.834045 1263.123535,644.107727 
	C1264.946777,643.364868 1266.967896,642.986877 1268.935059,642.745117 
	C1272.034790,642.364258 1274.338989,641.102600 1276.258545,638.492371 
	C1280.977783,632.074951 1287.351318,630.402771 1294.844482,632.891479 
	C1315.224243,639.660400 1333.216309,650.201721 1348.228760,665.796204 
	C1368.243774,686.587402 1386.762085,708.539856 1403.603760,732.024170 
	C1412.890137,744.973450 1425.199463,755.842468 1433.836548,769.148376 
	C1445.745117,787.494019 1455.793579,807.087158 1465.970093,826.496460 
	C1469.908081,834.007019 1474.101318,841.137329 1480.684448,846.326538 
	C1487.728638,851.879150 1491.082153,859.274658 1492.719238,867.517700 
	C1495.039062,879.197754 1498.157593,890.399292 1504.992310,900.418762 
	C1508.554932,905.641479 1508.296509,911.258362 1504.753052,916.832947 
	C1503.791626,918.345398 1503.854126,921.143921 1504.522705,922.955200 
	C1509.343506,936.016663 1514.939209,948.812805 1519.267090,962.027893 
	C1521.937378,970.181702 1522.808594,978.924683 1524.743774,987.701538 
	C1525.000000,1009.354248 1525.000000,1030.708496 1525.000000,1052.531372 
z"/>
<path fill="#FF0101" opacity="1.000000" stroke="none" 
	d="
M931.699402,503.470032 
	C935.118042,511.857330 937.974365,520.099731 941.621094,527.976196 
	C945.734436,536.860596 950.269409,545.581604 955.136047,554.078674 
	C964.685547,570.752197 971.538513,588.476440 977.145264,606.789246 
	C978.543091,611.354797 981.850586,615.663696 978.968445,620.449158 
	C972.972900,630.403809 974.192139,641.510986 973.296082,652.290100 
	C972.799622,658.262451 972.806274,664.297791 971.940247,670.210083 
	C971.456055,673.515320 969.470825,676.573120 968.493103,679.841492 
	C967.560364,682.959290 966.421265,686.218933 966.487000,689.393127 
	C966.669556,698.214783 965.081543,706.347229 961.239685,714.454651 
	C958.678833,719.858948 958.596619,726.390259 956.932495,732.283691 
	C955.792908,736.320007 953.674438,740.069580 952.299255,744.052856 
	C951.010437,747.786072 950.284302,751.712463 949.017822,755.454773 
	C947.562927,759.753540 945.748718,763.929382 944.165344,768.186401 
	C943.361755,770.346985 942.341309,772.523010 942.072144,774.770264 
	C940.645630,786.679199 938.403442,797.874573 931.165710,808.318604 
	C924.242798,818.308350 919.283875,829.855774 917.739990,842.376892 
	C917.498901,844.332092 916.976624,846.369812 916.079834,848.109253 
	C904.240479,871.072327 897.771362,896.378174 885.019470,918.961548 
	C881.334106,925.488220 877.844421,932.022583 875.146545,939.294983 
	C868.892700,956.152832 859.200500,971.519958 845.203918,983.439636 
	C834.668518,992.411865 821.907227,996.397461 808.365845,996.954346 
	C796.775452,997.431091 785.079590,997.061462 773.534546,995.967163 
	C769.589417,995.593262 765.028931,992.658203 762.410095,989.511475 
	C758.674683,985.023132 755.241577,979.573425 753.825012,973.990051 
	C748.174561,951.719055 747.835754,930.176331 762.549255,910.197876 
	C768.516968,902.094543 772.179504,892.174072 776.115173,882.756226 
	C777.560242,879.298218 776.617371,874.888611 777.037598,870.942200 
	C777.412537,867.421326 777.934814,863.818604 783.035828,864.269592 
	C783.695129,864.327881 784.854492,863.136047 785.146301,862.301025 
	C793.351868,838.816223 810.547119,822.012329 827.528931,805.037415 
	C828.690674,803.876221 830.321350,802.592773 830.541199,801.180542 
	C831.637878,794.134155 835.043091,788.464355 839.787231,783.326538 
	C840.941284,782.076660 841.645508,780.056213 841.818481,778.316650 
	C842.602539,770.431763 846.969116,764.116394 850.162659,757.184387 
	C858.840942,738.347168 866.595032,719.086182 874.909546,700.078003 
	C877.931091,693.170410 878.628296,685.982056 878.582031,678.639832 
	C878.465454,660.143127 878.253906,641.646973 878.048096,623.150940 
	C878.031555,621.660400 878.074341,620.058838 877.570740,618.701355 
	C873.207947,606.939758 873.005554,594.713196 872.465820,582.356873 
	C871.734314,565.611450 863.803833,551.125610 855.262939,537.151794 
	C844.012695,518.745300 829.862793,502.574829 815.839417,486.278748 
	C811.396057,481.115143 808.587036,474.567413 804.804565,468.800995 
	C803.384216,466.635620 801.365967,464.849335 799.546631,462.961212 
	C794.382996,457.602203 788.183838,452.934235 784.175781,446.824219 
	C770.312378,425.690521 753.873413,406.796600 736.892761,388.181519 
	C726.182617,376.440369 714.087769,365.705353 706.416199,351.362366 
	C699.230164,337.927124 695.423340,323.571625 695.065552,308.435028 
	C694.446716,282.251312 694.712952,256.033783 701.137939,230.454208 
	C703.832153,219.727509 707.093933,208.771576 712.380432,199.177704 
	C717.173340,190.479507 720.177124,181.386002 723.798218,172.355835 
	C726.483887,165.658508 730.849731,159.619080 734.606201,153.370163 
	C744.669861,136.629272 750.115479,118.561707 750.201721,98.994614 
	C750.239868,90.338509 749.691650,81.702538 753.543579,73.495872 
	C754.372559,71.729729 753.747375,69.244461 753.666321,67.095184 
	C753.484314,62.269764 753.138733,57.449005 753.042053,52.622700 
	C753.009583,51.000797 752.942383,48.731647 753.898071,47.850784 
	C757.898743,44.163383 757.286011,39.214695 758.590393,34.724010 
	C759.350281,32.107975 762.743591,29.010263 765.447205,28.427954 
	C775.480103,26.267014 785.684021,24.138048 795.889343,23.757868 
	C805.819641,23.387938 814.479980,28.540321 820.266113,36.422974 
	C823.164795,40.371902 824.202087,46.284023 824.547913,51.411655 
	C826.568665,81.376366 827.139893,111.363594 821.827759,141.091873 
	C820.886292,146.360764 818.078857,151.288895 816.207336,156.401550 
	C815.024536,159.632828 813.996399,162.920364 812.868835,166.172256 
	C811.407227,170.387375 809.849060,174.570114 808.450195,178.805679 
	C804.767334,189.957199 799.391357,200.895813 797.867126,212.342361 
	C794.630859,236.645340 794.107483,261.254425 803.088684,284.752777 
	C806.206543,292.910156 811.347168,300.274384 815.199280,308.178589 
	C817.501404,312.902344 819.473816,317.860992 820.940369,322.904205 
	C825.853149,339.798279 832.211365,356.035126 843.436096,369.777771 
	C849.677612,377.419312 857.063660,384.114441 863.635193,391.501709 
	C868.825134,397.335999 873.544617,403.587799 878.500305,409.631836 
	C883.330933,415.523376 888.565063,421.127075 892.935974,427.339813 
	C896.834290,432.880920 898.378113,439.206085 899.464783,446.215485 
	C900.549683,453.213226 906.233887,459.528595 910.049316,466.056915 
	C911.533875,468.596893 914.350342,470.686676 914.965393,473.349884 
	C917.642334,484.940338 924.283142,494.172119 931.699402,503.470032 
z"/>
<path fill="#FF0101" opacity="1.000000" stroke="none" 
	d="
M559.285889,777.291138 
	C568.383301,765.530212 576.552246,753.662354 581.389954,739.767944 
	C582.626526,736.216370 584.533142,732.733826 586.823547,729.750549 
	C590.586914,724.848694 594.459351,720.270935 595.416138,713.748047 
	C595.761902,711.390808 597.884094,709.011902 599.747131,707.214417 
	C604.632263,702.501343 606.478149,696.992920 606.592957,690.217834 
	C606.668701,685.751587 607.696106,680.743530 609.954102,676.969238 
	C619.565308,660.903503 625.004517,643.799988 625.572693,625.043945 
	C626.284180,601.556763 627.381348,578.063171 621.960632,554.920959 
	C620.790710,549.926147 618.984131,545.073669 617.349365,540.196350 
	C615.368042,534.285034 611.513916,529.684753 607.674622,524.788879 
	C594.035645,507.396484 581.173767,489.395538 567.964600,471.664581 
	C565.208374,467.964813 562.599609,464.041870 559.290161,460.885010 
	C524.655457,427.846863 496.417053,390.021454 473.851440,347.860413 
	C468.008118,336.942871 464.838837,325.554047 464.431122,313.100616 
	C463.819366,294.413971 463.615265,275.765167 466.974548,257.328308 
	C469.226562,244.968628 474.479187,233.672943 480.819672,222.811646 
	C483.790314,217.722870 485.505920,211.917923 488.120422,206.599838 
	C490.450317,201.860718 492.881165,197.096436 495.906189,192.792145 
	C499.977325,186.999313 502.911163,181.108566 504.014374,173.888474 
	C506.299652,158.931671 512.637634,146.113831 526.007507,137.566376 
	C528.370422,136.055740 529.543579,132.798233 531.588745,130.655334 
	C538.212158,123.715393 544.702759,116.604851 551.816650,110.194969 
	C555.563660,106.818787 560.596741,105.199898 565.695862,108.237808 
	C572.162598,112.090492 577.991882,116.323959 576.267456,125.366318 
	C575.992249,126.809280 576.768066,128.543854 577.333313,130.039597 
	C579.385254,135.469513 581.728271,140.794830 583.629822,146.274704 
	C585.497803,151.658112 584.264221,156.453506 581.094116,161.341934 
	C578.582275,165.215363 577.357178,169.965927 575.819824,174.416519 
	C574.313599,178.777145 574.097290,183.891617 571.650391,187.567200 
	C559.233459,206.219269 558.677124,226.809433 560.544678,247.978104 
	C562.036133,264.883636 563.605896,281.708527 568.817017,298.059174 
	C571.825928,307.500061 576.048279,315.841797 583.261047,322.670868 
	C588.687134,327.808380 592.638000,333.930359 594.301514,341.296143 
	C598.492004,359.851044 609.665344,374.654083 620.223877,389.784088 
	C631.634277,406.134827 644.249023,421.705750 652.368103,440.171844 
	C653.126526,441.896851 654.797058,443.314941 656.272522,444.616547 
	C680.330261,465.838074 702.425171,488.911804 721.368652,514.830200 
	C727.120911,522.700500 731.632263,531.475891 736.755737,539.809814 
	C737.414429,540.881165 738.142639,542.141052 739.172241,542.713745 
	C744.120544,545.466187 744.670837,549.622620 743.835327,554.693420 
	C743.342712,557.683044 743.195801,560.960022 743.879333,563.876770 
	C749.553223,588.089722 749.175598,612.437195 745.706787,636.836975 
	C744.777039,643.377136 743.388306,649.909668 741.515564,656.240173 
	C739.976013,661.444214 737.803467,666.560303 735.199707,671.326660 
	C731.498840,678.101318 728.283264,684.827942 727.573181,692.726440 
	C727.279358,695.994934 725.125732,699.106750 723.763000,702.266174 
	C721.884033,706.622131 719.183105,710.793518 718.226013,715.337097 
	C716.808594,722.065491 714.485596,728.013977 709.663879,732.971375 
	C706.198853,736.534058 704.331482,740.716370 703.841858,745.846924 
	C703.542419,748.985474 701.902954,752.207092 700.184021,754.967102 
	C678.169861,790.312500 654.307922,824.343994 627.418091,856.183838 
	C624.525696,859.608643 621.106873,862.586914 617.956726,865.796326 
	C610.569519,873.322510 601.502502,877.019531 591.067749,877.007080 
	C572.095459,876.984375 553.123352,876.585388 534.151306,876.591492 
	C529.366455,876.593018 524.567932,877.428406 519.800171,878.064209 
	C511.262756,879.202820 504.079834,876.081665 497.773834,870.819519 
	C496.027771,869.362366 494.534576,866.760925 494.256439,864.519348 
	C492.057617,846.799805 495.686340,830.931519 510.460358,819.342773 
	C516.985596,814.224365 524.484741,810.280701 530.682373,804.827087 
	C540.520203,796.170288 549.637085,786.694214 559.285889,777.291138 
M471.945892,270.586121 
	C471.540955,276.913849 471.135986,283.241547 470.731049,289.569275 
	C471.051483,289.578674 471.371948,289.588043 471.692383,289.597443 
	C472.173279,281.758179 472.654144,273.918915 473.135040,266.079651 
	C472.849426,266.060791 472.563843,266.041931 472.278259,266.023071 
	C472.169708,267.260406 472.061157,268.497711 471.945892,270.586121 
z"/>
<path fill="#FF0101" opacity="1.000000" stroke="none" 
	d="
M976.368347,311.455078 
	C975.000549,305.820892 973.068298,300.542542 972.812683,295.184204 
	C972.131714,280.906738 971.663574,266.555481 976.798035,252.762512 
	C977.355835,251.264038 977.133362,249.473221 977.261658,247.817139 
	C977.531128,244.341797 977.104126,240.631699 978.190552,237.435150 
	C981.171082,228.665207 982.163696,219.768402 982.244629,210.565323 
	C982.271057,207.556870 983.758667,203.439713 986.011230,201.808105 
	C990.562744,198.511261 991.284851,194.179428 991.988770,189.407776 
	C993.808350,177.073654 995.168274,164.633072 997.811096,152.473969 
	C999.332336,145.474823 1002.467468,138.665421 1005.826172,132.269485 
	C1009.601135,125.080910 1017.363037,123.320045 1024.503662,122.177979 
	C1037.556274,120.090378 1050.294922,120.573143 1063.259888,125.322952 
	C1071.272461,128.258423 1077.451660,132.064514 1082.215942,138.682587 
	C1083.440674,140.384048 1084.633667,142.455688 1084.863281,144.468826 
	C1086.161255,155.849136 1086.043457,167.258820 1080.780273,177.716095 
	C1069.270020,200.585785 1066.047485,224.762894 1068.279297,249.955292 
	C1069.557739,264.385529 1070.732666,278.824951 1072.015625,293.254761 
	C1072.160522,294.884308 1072.497437,296.560547 1073.098389,298.074982 
	C1076.203125,305.900482 1079.329590,313.720245 1082.640503,321.459900 
	C1084.385864,325.540192 1086.381958,329.529877 1088.508423,333.427643 
	C1096.528809,348.128967 1107.114746,361.993408 1112.082764,377.649048 
	C1117.781372,395.607269 1127.381592,410.165283 1138.818726,424.279510 
	C1141.915039,428.100677 1143.929810,432.795715 1147.009644,436.633453 
	C1150.920288,441.506805 1155.699585,445.687744 1159.561279,450.594604 
	C1162.784790,454.690735 1165.179565,459.432678 1168.027344,463.832947 
	C1170.786499,468.096436 1173.641846,472.298096 1176.482666,476.508148 
	C1177.583130,478.139099 1179.198242,479.564301 1179.826416,481.348175 
	C1182.524658,489.010590 1185.371826,496.664368 1187.338013,504.527985 
	C1189.158691,511.809601 1191.032715,518.876160 1194.944458,525.432129 
	C1196.413818,527.894897 1196.245850,531.444031 1196.467529,534.523560 
	C1197.587769,550.084106 1194.110596,564.814270 1189.152466,579.495911 
	C1182.814819,598.262512 1179.333496,617.731140 1176.946045,637.411804 
	C1175.827148,646.635681 1173.579346,655.717285 1172.211182,664.918091 
	C1171.161865,671.975342 1170.498901,679.105042 1169.998901,686.226074 
	C1168.892700,701.980896 1168.859497,717.867981 1166.731689,733.475281 
	C1165.152710,745.056580 1161.675293,756.556274 1153.139526,765.612915 
	C1151.888184,766.940613 1151.131348,769.199280 1151.039551,771.070923 
	C1150.721680,777.556396 1148.302612,783.199890 1145.641113,789.024231 
	C1143.337158,794.066467 1141.894775,799.795166 1141.437134,805.333252 
	C1140.082886,821.721130 1134.030640,836.260071 1125.384888,849.924866 
	C1120.319458,857.930786 1115.213013,865.913818 1109.952148,873.791626 
	C1106.949463,878.287842 1103.177490,881.798706 1097.627441,883.326477 
	C1092.337036,884.782837 1090.650879,889.767883 1089.061035,894.281738 
	C1085.447632,904.540344 1083.257080,906.324341 1072.755493,906.909546 
	C1071.495605,906.979675 1070.055176,907.889954 1069.105225,908.824463 
	C1056.745483,920.982910 1045.150757,923.024536 1029.713867,915.363342 
	C1025.566528,913.304993 1021.627075,910.780579 1017.755554,908.222778 
	C1008.690552,902.233643 1005.416748,893.597168 1007.295349,883.126648 
	C1008.906189,874.148560 1011.170471,865.289673 1012.913574,856.332947 
	C1014.814270,846.566406 1018.304138,836.629395 1017.688538,826.984497 
	C1017.040649,816.833374 1018.836548,807.561157 1020.986816,798.046509 
	C1022.389282,791.840942 1025.746460,787.046875 1030.449707,782.639221 
	C1034.204712,779.120178 1037.197021,774.468323 1039.524902,769.817383 
	C1043.438110,761.999451 1045.710815,753.491638 1051.657471,746.527527 
	C1053.871338,743.934875 1053.134888,738.899841 1053.952026,735.022339 
	C1055.903931,725.759766 1057.724243,716.456238 1060.124512,707.307373 
	C1061.157593,703.370056 1063.617554,699.825928 1065.209473,696.011475 
	C1066.967529,691.798950 1068.375732,687.440552 1070.130127,683.226440 
	C1071.009155,681.115173 1072.018433,678.926575 1073.482788,677.211975 
	C1083.255737,665.769409 1088.782837,652.612183 1088.772705,637.562073 
	C1088.755127,611.585510 1089.548340,585.517334 1087.661255,559.658264 
	C1085.696045,532.730591 1077.338379,506.894623 1068.681641,481.351471 
	C1068.059570,479.515961 1067.088379,477.298126 1065.589111,476.351349 
	C1060.399658,473.074524 1059.769653,467.584351 1057.519775,462.637756 
	C1051.295044,448.951996 1044.558105,435.677460 1031.992798,425.977081 
	C1023.671631,419.553101 1016.686707,411.260529 1009.764282,403.234589 
	C1007.221313,400.286102 1006.036682,395.815063 1005.184753,391.834717 
	C1003.591675,384.391907 1002.835510,376.773743 1001.432800,369.284393 
	C1000.923279,366.563538 1000.099365,363.601837 998.490540,361.441284 
	C993.076111,354.170013 990.096619,345.965546 988.472229,337.234436 
	C986.693542,327.673798 982.568970,319.310394 976.368347,311.455078 
z"/>
<path fill="#FF1111" opacity="1.000000" stroke="none" 
	d="
M517.025391,89.514198 
	C515.433350,89.377487 514.115173,89.008743 512.797058,88.639999 
	C513.301453,87.197418 513.434387,84.985748 514.408386,84.515259 
	C515.519104,83.978752 517.379395,84.994118 518.913940,85.335030 
	C518.375671,86.650742 517.837463,87.966454 517.025391,89.514198 
z"/>
<path fill="#FF4F4F" opacity="1.000000" stroke="none" 
	d="
M471.949249,270.160583 
	C472.061157,268.497711 472.169708,267.260406 472.278259,266.023071 
	C472.563843,266.041931 472.849426,266.060791 473.135040,266.079651 
	C472.654144,273.918915 472.173279,281.758179 471.692383,289.597443 
	C471.371948,289.588043 471.051483,289.578674 470.731049,289.569275 
	C471.135986,283.241547 471.540955,276.913849 471.949249,270.160583 
z"/>
</svg>