<svg version="1.1" id="Layer_1" xmlns="http://www.w3.org/2000/svg" xmlns:xlink="http://www.w3.org/1999/xlink" x="0px" y="0px"
	 width="100%" viewBox="0 0 1545 1545" enable-background="new 0 0 1545 1545" xml:space="preserve">
<path fill="#FFFFFF" opacity="1.000000" stroke="none" 
	d="
M822.000000,1546.000000 
	C548.000061,1546.000000 274.500092,1546.000000 1.000110,1546.000000 
	C1.000073,1031.000122 1.000073,516.000305 1.000037,1.000317 
	C515.999756,1.000212 1030.999512,1.000212 1545.999512,1.000106 
	C1545.999634,515.999695 1545.999634,1030.999390 1545.999756,1545.999512 
	C1304.833374,1546.000000 1063.666626,1546.000000 822.000000,1546.000000 
M67.600464,953.973389 
	C69.072052,961.127197 70.162781,968.385071 72.085091,975.415649 
	C78.394897,998.492798 83.486839,1022.088806 98.451996,1041.752319 
	C99.325462,1042.900024 99.650124,1044.475830 100.183685,1045.870117 
	C105.233406,1059.066650 113.761482,1069.368164 125.582909,1077.121948 
	C128.411438,1078.977295 130.907974,1081.581055 133.002731,1084.272217 
	C144.045319,1098.458618 154.349121,1113.264526 166.033051,1126.892090 
	C173.917343,1136.087769 181.920868,1144.913696 188.275589,1155.397949 
	C197.840500,1171.178589 212.837784,1181.953979 226.698700,1193.672607 
	C227.957870,1194.737305 229.414917,1195.739258 230.261353,1197.094238 
	C239.283096,1211.535767 252.435379,1221.691162 266.892609,1229.592285 
	C289.274048,1241.824341 312.836792,1251.611572 337.318298,1259.103149 
	C343.123413,1260.879639 348.808563,1263.669556 353.919250,1266.968628 
	C365.762177,1274.613159 377.808167,1281.593262 391.852386,1284.301758 
	C401.668854,1286.194946 411.544434,1287.805908 421.312286,1289.918945 
	C429.432281,1291.675659 438.094360,1292.678101 445.331940,1296.349487 
	C456.060577,1301.791748 466.887268,1305.239258 478.774445,1307.160645 
	C518.213013,1313.535278 557.312317,1322.147583 597.427429,1323.701294 
	C616.053040,1324.422607 634.665894,1325.471924 653.291077,1326.206543 
	C656.393066,1326.328857 659.547974,1325.186646 662.645691,1325.331421 
	C686.758179,1326.458252 710.897400,1329.231201 734.961487,1328.662842 
	C772.573364,1327.774658 810.131653,1324.644775 847.714722,1322.499878 
	C857.811890,1321.923584 868.000549,1320.393677 878.001709,1321.171631 
	C907.065247,1323.432129 935.917786,1322.806152 964.716614,1318.218994 
	C976.997314,1316.262817 989.140198,1312.634277 1001.844727,1314.684937 
	C1005.113525,1315.212646 1008.488342,1315.180054 1011.816956,1315.226318 
	C1045.741699,1315.697510 1078.352783,1308.146362 1110.363281,1298.022827 
	C1120.496704,1294.818115 1130.551270,1292.715820 1141.010986,1291.790894 
	C1144.821411,1291.453979 1148.688721,1291.117554 1152.380249,1290.186890 
	C1172.085571,1285.217773 1191.986694,1280.838745 1211.360474,1274.784790 
	C1239.793457,1265.899902 1267.854126,1255.818970 1296.038086,1246.144653 
	C1305.203979,1242.998535 1312.835815,1237.406616 1319.517578,1230.461792 
	C1321.937012,1227.946899 1324.281616,1225.349731 1326.825439,1222.966431 
	C1346.144897,1204.867432 1365.503052,1186.809814 1384.858032,1168.748779 
	C1386.307373,1167.396362 1387.811279,1166.101196 1389.313599,1164.807007 
	C1394.568970,1160.279663 1400.570679,1156.380493 1404.963867,1151.133179 
	C1420.348389,1132.758057 1434.775146,1113.572021 1450.387695,1095.400391 
	C1458.449707,1086.016968 1468.198364,1078.297974 1476.040039,1068.365234 
	C1491.566040,1048.698975 1503.697632,1027.293579 1514.185547,1004.762329 
	C1519.803833,992.692261 1526.249268,980.712341 1526.643921,967.115234 
	C1527.029907,953.820251 1526.027344,940.486755 1525.700562,927.168518 
	C1525.534302,920.400635 1526.353027,913.487000 1525.234985,906.892090 
	C1523.461182,896.428772 1520.679932,886.111511 1517.895142,875.849060 
	C1510.295044,847.841492 1501.472900,820.313049 1484.993896,795.940125 
	C1464.521240,765.660095 1439.870972,739.593872 1408.993286,719.646973 
	C1397.702271,712.352966 1385.908325,705.984375 1375.784546,696.701050 
	C1349.328735,672.441284 1304.701416,676.626587 1282.439941,704.708801 
	C1256.722168,737.151123 1270.104248,783.569092 1309.549805,798.819092 
	C1311.550781,799.592773 1313.756592,800.275330 1315.342163,801.619446 
	C1337.604004,820.493286 1358.701050,840.534912 1376.343140,863.924438 
	C1379.183105,867.689514 1382.692627,871.255249 1382.353638,876.682190 
	C1382.281372,877.838806 1383.081543,879.564331 1384.031006,880.186890 
	C1390.161011,884.205688 1389.554688,891.301147 1391.382202,896.998169 
	C1395.166016,908.793518 1396.996704,921.122559 1397.992920,933.513306 
	C1398.323486,937.625854 1399.613159,942.088928 1398.498169,945.801392 
	C1396.157227,953.596130 1390.268188,960.196960 1390.531006,968.983887 
	C1390.551636,969.671875 1389.735962,970.403625 1389.265259,971.084717 
	C1376.594360,989.420776 1365.055176,1008.696045 1350.882446,1025.787354 
	C1339.526855,1039.481323 1325.512451,1051.184937 1311.637817,1062.495972 
	C1303.154175,1069.412109 1294.845459,1076.035522 1289.150146,1085.498169 
	C1276.350586,1106.763916 1259.323242,1123.825562 1236.153442,1133.018799 
	C1216.385132,1140.862305 1195.762207,1146.555298 1175.495728,1153.132690 
	C1174.271729,1153.529907 1172.854370,1153.433228 1171.530640,1153.404907 
	C1160.955444,1153.178223 1151.160400,1156.102417 1141.634521,1160.437012 
	C1133.003906,1164.364258 1124.248169,1168.019165 1115.513062,1171.712891 
	C1114.330444,1172.212891 1112.868530,1172.652222 1111.669434,1172.422485 
	C1096.945801,1169.603271 1082.465576,1172.346924 1067.944580,1174.172363 
	C1037.924316,1177.946289 1008.625671,1185.970337 978.176331,1187.705566 
	C954.790283,1189.038330 931.589050,1193.585083 908.294189,1196.614014 
	C906.573853,1196.837769 904.500427,1196.853516 903.032532,1196.102783 
	C893.580139,1191.267944 883.766052,1191.908691 873.856689,1193.841064 
	C871.626221,1194.276001 869.548584,1195.708130 867.325684,1195.929688 
	C859.868896,1196.673340 852.385864,1197.352173 844.899109,1197.559937 
	C821.007812,1198.222778 797.057007,1202.502075 773.247192,1196.615967 
	C772.452942,1196.419678 771.588074,1196.452026 770.757751,1196.467163 
	C756.602417,1196.725098 742.448425,1197.123535 728.291992,1197.236572 
	C706.805969,1197.408325 685.317749,1197.502197 663.831543,1197.401001 
	C649.882080,1197.335327 635.914429,1197.236572 621.990723,1196.486816 
	C601.387085,1195.377686 580.814697,1193.684204 560.229980,1192.226562 
	C548.453430,1191.392700 536.644409,1190.853394 524.911926,1189.601562 
	C511.180328,1188.136230 497.521057,1186.000977 483.819244,1184.243652 
	C480.081879,1183.764404 476.109467,1184.231445 472.588898,1183.147217 
	C466.721375,1181.340576 461.037079,1178.837891 455.440582,1176.268921 
	C428.928101,1164.098511 402.166046,1152.670166 374.344086,1143.645508 
	C361.775391,1139.568726 349.995331,1133.017822 337.947174,1127.397095 
	C331.928314,1124.589233 326.101410,1121.367676 320.213379,1118.284302 
	C319.360352,1117.837524 318.408112,1117.271484 317.912598,1116.497559 
	C310.848083,1105.465942 301.110413,1096.294556 295.928284,1083.896118 
	C293.849457,1078.922363 290.623718,1074.185547 287.031403,1070.127686 
	C268.701416,1049.421753 249.990158,1029.053223 231.656387,1008.350464 
	C228.795700,1005.120239 226.387665,1001.021057 225.139130,996.908203 
	C217.822784,972.807983 214.027130,947.978149 209.921051,923.175415 
	C207.648315,909.447021 210.378983,897.807861 217.726425,886.353821 
	C222.734940,878.545959 227.730499,870.320984 230.501938,861.575806 
	C235.585190,845.535706 243.174133,832.048279 257.023254,821.754822 
	C273.036438,809.853149 288.042725,796.604126 303.623627,784.111450 
	C320.528992,770.556946 328.487061,752.859863 326.576996,731.518188 
	C324.308380,706.170349 305.952637,685.083801 281.736847,678.147766 
	C255.109985,670.521057 228.159393,678.763733 211.914917,699.306763 
	C209.043991,702.937378 205.789520,706.348633 202.304642,709.394958 
	C189.257111,720.800903 176.070129,732.048279 162.855499,743.260925 
	C160.857590,744.956116 158.570297,746.446777 156.188950,747.531616 
	C139.582626,755.095886 127.944427,767.180359 121.845268,784.501221 
	C121.143341,786.494507 120.050323,788.460938 118.724670,790.106262 
	C106.911247,804.769104 95.031693,819.379028 83.115242,833.958435 
	C76.127617,842.507629 71.488670,852.057190 69.843124,863.060791 
	C69.208923,867.301575 68.006935,871.457520 66.273026,875.685852 
	C65.162743,877.719055 63.250660,879.694519 63.099072,881.796814 
	C62.711700,887.169312 63.108711,892.598328 63.077423,898.828918 
	C63.310650,901.298035 63.666504,903.762817 63.754002,906.237061 
	C64.011513,913.519409 64.162590,920.805481 64.259010,928.952332 
	C65.415543,937.005798 66.572075,945.059204 67.600464,953.973389 
M683.604370,823.110840 
	C680.396790,824.881165 676.986877,826.365723 674.016113,828.470337 
	C659.612122,838.675049 645.496521,849.294250 630.951599,859.290771 
	C615.317871,870.035706 599.713257,880.865662 581.112000,886.344727 
	C571.082458,889.299011 563.634521,896.550354 556.576660,903.890686 
	C552.142273,908.502808 552.444702,912.514893 557.851685,915.927612 
	C562.109680,918.615173 567.086853,920.647400 572.014709,921.673645 
	C578.990112,923.126282 586.198181,923.757812 593.335754,924.062622 
	C602.977600,924.474304 612.726196,923.474426 622.286438,924.461365 
	C637.779846,926.060608 650.854736,921.226562 663.008606,912.234131 
	C665.868896,910.117737 669.400146,908.843872 672.733215,907.445740 
	C677.906799,905.275757 683.384216,903.739441 688.351257,901.190796 
	C694.861084,897.850586 701.303711,894.205017 707.207581,889.910461 
	C712.507141,886.055481 717.218323,881.324097 721.871094,876.661987 
	C730.828430,867.686646 737.987427,856.494507 751.564087,853.399902 
	C752.463074,853.194946 753.209167,852.305237 754.018494,851.723083 
	C760.371582,847.152954 766.649597,842.473999 773.095215,838.038452 
	C779.310486,833.761475 786.369812,830.473816 791.884888,825.460632 
	C808.872681,810.018860 825.301147,793.961792 841.936523,778.132874 
	C842.656494,777.447876 843.293945,776.671875 843.934875,775.908875 
	C852.613464,765.577026 861.027649,755.009155 870.017090,744.955566 
	C885.552368,727.581238 899.142395,708.967529 908.357544,687.438538 
	C911.947388,679.051636 915.314331,670.555054 918.379211,661.964478 
	C919.666260,658.356934 920.970398,654.208435 920.402588,650.599243 
	C919.197266,642.938904 917.161987,635.342712 914.751221,627.953796 
	C911.086609,616.722107 906.909180,605.711182 906.549622,593.656067 
	C906.319397,585.934143 903.294861,578.987732 898.125854,573.267273 
	C891.656555,566.107849 885.242371,558.813904 878.086060,552.376587 
	C860.124146,536.219299 844.202148,518.453125 831.911194,497.558807 
	C831.113525,496.202820 829.814453,495.077057 828.572083,494.059723 
	C824.998718,491.133514 820.825073,488.767548 817.818970,485.359589 
	C812.544128,479.379517 807.975952,472.777527 803.079224,466.461304 
	C802.176636,465.296967 801.183594,463.371399 800.124634,463.295258 
	C793.485413,462.817963 789.976990,457.934784 786.116394,453.700531 
	C768.009338,433.840546 748.335571,415.419373 737.519348,389.678925 
	C731.409973,375.139893 730.786621,360.764099 731.862183,345.776093 
	C732.023376,343.529724 732.879395,341.182434 733.963440,339.179169 
	C738.687500,330.448975 742.237061,320.883606 750.957520,314.896698 
	C752.260254,314.002350 752.956543,312.263062 754.046692,311.013550 
	C757.751770,306.766663 761.305908,302.362640 765.281250,298.381683 
	C778.267822,285.376770 791.415710,272.532990 804.495911,259.621521 
	C804.849915,259.272095 805.188477,258.887848 805.450806,258.467743 
	C811.603271,248.615265 817.968384,238.885513 823.788391,228.840012 
	C826.513306,224.136795 829.346375,219.499710 830.501648,213.789612 
	C831.320190,209.743668 836.879272,206.843872 833.856567,201.463913 
	C833.699829,201.184937 834.016541,200.408157 834.341187,200.125015 
	C839.619629,195.522415 837.568420,191.476944 833.294800,187.812653 
	C834.288879,186.362015 835.945801,185.047379 835.810730,183.954056 
	C835.160950,178.692032 835.845276,173.942688 838.987549,169.511017 
	C839.503845,168.782822 838.824646,166.884750 838.246521,165.759308 
	C835.925781,161.241791 831.722107,160.388458 827.576904,161.906189 
	C822.305603,163.836273 817.272888,166.525513 812.340942,169.255280 
	C796.512756,178.015945 781.974976,188.748337 765.445984,196.661942 
	C749.734314,204.184219 735.462280,215.235764 724.583313,229.671051 
	C723.271240,231.412048 720.982605,232.483612 719.021851,233.656982 
	C712.805054,237.377213 705.731384,240.097427 700.409424,244.808823 
	C672.103943,269.867004 657.817200,302.381195 651.887512,339.077667 
	C650.776428,345.953766 650.621216,353.117249 648.542175,359.678253 
	C643.097839,376.859528 642.406372,394.226593 646.781738,411.399872 
	C655.205322,444.462555 673.521057,472.459290 693.956482,499.196564 
	C698.797546,505.530457 703.928650,511.652832 708.558105,518.135498 
	C713.159424,524.578613 716.565491,532.004517 721.778687,537.856445 
	C735.843933,553.645020 750.950134,568.508789 764.948181,584.353516 
	C774.854492,595.566711 784.127869,607.482361 789.952087,621.506470 
	C791.512085,625.262817 790.922363,630.117432 792.992615,633.418579 
	C799.710022,644.129700 797.018127,656.093323 798.560913,667.467590 
	C798.661438,668.208740 798.200745,669.080933 797.849609,669.820251 
	C791.463867,683.264160 784.027710,696.015625 773.735413,706.937134 
	C757.445496,724.222961 743.083069,742.922485 731.741394,763.885315 
	C721.708862,782.428467 709.840271,799.705994 694.829529,814.622498 
	C691.698486,817.733826 687.800964,820.073792 683.604370,823.110840 
M941.295410,498.225677 
	C950.679871,510.740417 960.103821,523.225891 969.421143,535.790344 
	C971.785522,538.978638 973.888123,542.370789 975.973328,545.754089 
	C978.663025,550.118347 980.738770,554.952820 983.929932,558.896179 
	C989.579590,565.877686 995.602905,572.607361 1001.946716,578.966675 
	C1017.851807,594.910522 1033.407959,611.120422 1046.315796,629.681824 
	C1054.017700,640.757324 1060.203369,652.095764 1059.838013,666.399902 
	C1059.679932,672.593628 1062.478027,678.897949 1064.152832,685.092651 
	C1065.581665,690.377380 1066.593506,695.459778 1062.394897,700.065918 
	C1057.461914,705.477539 1052.586548,710.942261 1047.739624,716.431091 
	C1046.669189,717.643250 1045.088989,719.001404 1044.991699,720.380371 
	C1044.335327,729.687012 1038.955933,736.579956 1033.225464,743.033691 
	C1008.451355,770.934570 984.033875,799.189819 958.328857,826.214905 
	C936.965881,848.675049 913.889282,869.499329 891.825317,891.304810 
	C888.375366,894.714355 885.652771,899.215088 883.676453,903.689453 
	C878.979980,914.322266 886.337036,923.762878 897.933472,922.627808 
	C902.147278,922.215454 905.790588,923.225159 909.065247,926.367004 
	C918.289246,935.216858 938.651794,931.866882 942.575256,920.743286 
	C943.743042,917.432190 945.418579,915.811768 948.407837,914.802490 
	C951.406067,913.790222 954.292480,912.405396 957.334045,911.570435 
	C968.982300,908.373108 978.921509,902.357788 988.117188,894.568115 
	C993.396606,890.095947 999.518738,886.443054 1005.683289,883.230713 
	C1016.009338,877.849915 1027.488647,874.127380 1035.550659,865.387024 
	C1061.184082,837.597168 1086.927246,809.878540 1111.621460,781.263794 
	C1125.743408,764.899780 1135.140625,745.336243 1141.237305,724.535706 
	C1143.549805,716.646545 1145.218018,708.749512 1151.225098,702.671875 
	C1154.708740,699.147217 1155.992065,694.770691 1156.100098,689.963745 
	C1156.338623,679.347534 1156.572876,668.731079 1156.755249,658.113770 
	C1156.860962,651.959229 1157.902222,645.593994 1156.715576,639.686646 
	C1153.208252,622.226501 1148.952759,604.838562 1139.378784,589.481018 
	C1129.337646,573.374268 1119.431274,557.129517 1108.383911,541.720947 
	C1099.210815,528.926819 1088.770996,516.989380 1078.312622,505.186157 
	C1071.298096,497.269653 1063.032593,490.475830 1055.751465,482.778107 
	C1044.423096,470.801575 1032.866943,458.962616 1022.475830,446.195801 
	C1007.611511,427.933136 997.360779,407.588501 997.983582,383.008850 
	C998.196167,374.618500 999.811707,367.098511 1003.858765,359.664459 
	C1011.043457,346.466919 1021.696106,336.218018 1031.802979,325.573822 
	C1044.214722,312.502106 1057.401978,300.166687 1070.248535,287.507385 
	C1070.602905,287.158112 1070.943848,286.776398 1071.208496,286.357635 
	C1077.855591,275.841919 1084.401611,265.260956 1091.169800,254.824036 
	C1094.225586,250.111984 1095.851074,244.926727 1097.749146,239.730698 
	C1099.134155,235.939224 1103.648071,233.199097 1100.758423,228.241455 
	C1100.552124,227.887497 1101.091797,227.007050 1101.417480,226.448929 
	C1105.267822,219.849838 1105.256958,219.657166 1100.173950,214.137451 
	C1103.053345,211.377609 1104.201660,208.282181 1102.227051,204.315750 
	C1101.800659,203.459259 1102.709229,201.429062 1103.597900,200.523209 
	C1106.162354,197.908981 1107.323975,194.723846 1104.910645,192.095795 
	C1103.043701,190.062805 1099.681641,188.336365 1097.010620,188.373322 
	C1093.530029,188.421494 1089.776123,189.816452 1086.668213,191.568878 
	C1078.547852,196.147537 1070.826538,201.430679 1062.738403,206.070633 
	C1053.252808,211.512268 1043.416748,216.347626 1033.984009,221.874908 
	C1027.677856,225.570145 1021.968933,230.275253 1015.714294,234.069397 
	C1000.769897,243.134781 991.976501,260.224548 974.303040,265.672272 
	C949.349121,282.646362 936.622620,308.252319 926.057739,335.113831 
	C920.998657,347.976532 918.466858,361.623047 917.897034,375.568542 
	C917.750061,379.163879 916.870972,382.863007 915.626038,386.256897 
	C909.874329,401.937042 909.613464,418.136108 912.838379,434.046722 
	C917.517944,457.133636 928.233582,477.885345 941.295410,498.225677 
M502.489960,416.887634 
	C499.808777,407.131897 496.873047,397.437103 494.518219,387.603241 
	C492.176270,377.823181 486.920197,369.332184 487.460602,358.107269 
	C488.461243,337.324341 496.154205,320.964722 511.351593,307.505768 
	C512.222107,306.734833 513.246216,306.010406 513.809143,305.038605 
	C520.682678,293.173004 531.882019,285.642944 541.783997,276.780609 
	C547.651062,271.529572 554.234192,267.118073 558.668884,260.156799 
	C561.582214,255.583725 566.309387,252.161148 570.251526,248.250778 
	C572.020813,246.495773 574.040710,244.962112 575.632263,243.064209 
	C585.188965,231.667816 593.762573,219.622025 599.845093,205.942719 
	C600.709534,203.998596 601.820129,202.046326 603.250244,200.498230 
	C605.522644,198.038467 607.083740,195.153473 604.794739,192.541946 
	C602.953918,190.441681 599.757385,188.356415 597.170105,188.365921 
	C593.535278,188.379288 589.567383,189.741776 586.341675,191.579849 
	C577.228577,196.772720 568.474060,202.590164 559.476501,207.991898 
	C552.367737,212.259659 545.092712,216.249344 537.919922,220.411362 
	C528.807800,225.698639 519.101562,230.216324 510.777161,236.546188 
	C498.865021,245.604156 489.639954,257.700806 475.771667,264.859619 
	C464.082123,270.893768 455.219513,281.099792 447.457123,291.944702 
	C444.580933,295.963074 441.239563,299.745941 437.627838,303.119720 
	C430.456879,309.818298 424.092987,317.147369 419.629181,325.865173 
	C407.991455,348.593750 405.185150,373.083832 406.071625,398.178162 
	C406.165710,400.841309 407.796570,403.443451 408.672699,406.087769 
	C409.468597,408.489838 410.909119,410.926971 410.854065,413.320831 
	C410.563416,425.962189 412.469971,438.102234 416.847290,450.029205 
	C428.247833,481.092621 445.815582,508.351898 467.048035,533.477783 
	C470.345032,537.379395 473.041412,541.813660 475.793793,546.142517 
	C478.099121,549.768250 479.613556,553.982422 482.300507,557.262329 
	C488.310638,564.598877 494.531982,571.814453 501.207428,578.543457 
	C517.184265,594.648315 532.843689,610.975281 545.964722,629.593201 
	C554.904602,642.278259 561.278076,655.567139 560.265625,671.710205 
	C560.011719,675.758240 561.865234,680.100037 563.388611,684.061279 
	C565.871216,690.516418 567.208191,696.328674 562.652100,702.818542 
	C558.189392,709.175293 555.166870,716.526062 551.242371,723.283875 
	C548.662415,727.726440 546.177856,732.444519 542.664368,736.088257 
	C523.506042,755.956299 503.182434,774.313477 477.428467,785.646057 
	C471.926270,788.067139 467.256409,792.370422 462.175659,795.765503 
	C460.943542,796.588989 459.614258,797.270996 458.310059,797.982056 
	C445.175995,805.142334 431.945343,812.131958 418.935669,819.511292 
	C411.114807,823.947510 403.471497,828.313843 394.697113,831.044739 
	C389.655640,832.613831 384.997131,837.330933 381.593811,841.734253 
	C377.793701,846.650940 379.628143,854.200317 384.413788,857.342712 
	C392.177094,862.440247 400.421448,866.643066 410.141602,864.771729 
	C423.049316,862.286621 435.869080,859.347900 448.761749,856.780457 
	C458.417419,854.857605 466.887482,850.828613 474.879761,844.960083 
	C482.755463,839.177185 491.520447,834.601013 499.937012,829.565186 
	C500.891205,828.994385 502.133331,828.540833 503.211517,828.598816 
	C512.020203,829.072083 519.363403,826.380981 526.842834,821.278076 
	C541.205811,811.478699 555.360718,801.728088 566.548218,788.152527 
	C569.344666,784.759216 573.139160,782.053894 576.829651,779.556335 
	C589.089050,771.259583 601.543823,763.251953 613.852661,755.027283 
	C618.724060,751.772095 622.335266,747.621216 625.326416,742.276245 
	C635.019775,724.955322 646.327576,708.756714 660.983704,695.036987 
	C664.732605,691.527649 668.361816,686.719238 669.577209,681.886780 
	C673.804504,665.079529 674.763794,648.012085 669.418030,631.115234 
	C666.162842,620.826111 662.680237,610.605713 659.610474,600.262207 
	C657.287048,592.433167 655.267700,584.652527 648.386597,579.182312 
	C645.975708,577.265747 644.253845,574.414856 642.430420,571.839722 
	C636.659607,563.689575 631.244629,555.275208 625.228699,547.313110 
	C611.519958,529.169373 597.226807,510.941406 577.640625,499.287231 
	C560.447693,489.057098 549.408752,472.965607 534.577087,460.632172 
	C525.861694,453.384766 519.010437,443.729492 512.053284,434.598999 
	C508.191284,429.530548 505.835327,423.314545 502.489960,416.887634 
z"/>
<path fill="#E71A20" opacity="1.000000" stroke="none" 
	d="
M67.063629,875.652100 
	C68.006935,871.457520 69.208923,867.301575 69.843124,863.060791 
	C71.488670,852.057190 76.127617,842.507629 83.115242,833.958435 
	C95.031693,819.379028 106.911247,804.769104 118.724670,790.106262 
	C120.050323,788.460938 121.143341,786.494507 121.845268,784.501221 
	C127.944427,767.180359 139.582626,755.095886 156.188950,747.531616 
	C158.570297,746.446777 160.857590,744.956116 162.855499,743.260925 
	C176.070129,732.048279 189.257111,720.800903 202.304642,709.394958 
	C205.789520,706.348633 209.043991,702.937378 211.914917,699.306763 
	C228.159393,678.763733 255.109985,670.521057 281.736847,678.147766 
	C305.952637,685.083801 324.308380,706.170349 326.576996,731.518188 
	C328.487061,752.859863 320.528992,770.556946 303.623627,784.111450 
	C288.042725,796.604126 273.036438,809.853149 257.023254,821.754822 
	C243.174133,832.048279 235.585190,845.535706 230.501938,861.575806 
	C227.730499,870.320984 222.734940,878.545959 217.726425,886.353821 
	C210.378983,897.807861 207.648315,909.447021 209.921051,923.175415 
	C214.027130,947.978149 217.822784,972.807983 225.139130,996.908203 
	C226.387665,1001.021057 228.795700,1005.120239 231.656387,1008.350464 
	C249.990158,1029.053223 268.701416,1049.421753 287.031403,1070.127686 
	C290.623718,1074.185547 293.849457,1078.922363 295.928284,1083.896118 
	C301.110413,1096.294556 310.848083,1105.465942 317.912598,1116.497559 
	C318.408112,1117.271484 319.360352,1117.837524 320.213379,1118.284302 
	C326.101410,1121.367676 331.928314,1124.589233 337.947174,1127.397095 
	C349.995331,1133.017822 361.775391,1139.568726 374.344086,1143.645508 
	C402.166046,1152.670166 428.928101,1164.098511 455.440582,1176.268921 
	C461.037079,1178.837891 466.721375,1181.340576 472.588898,1183.147217 
	C476.109467,1184.231445 480.081879,1183.764404 483.819244,1184.243652 
	C497.521057,1186.000977 511.180328,1188.136230 524.911926,1189.601562 
	C536.644409,1190.853394 548.453430,1191.392700 560.229980,1192.226562 
	C580.814697,1193.684204 601.387085,1195.377686 621.990723,1196.486816 
	C635.914429,1197.236572 649.882080,1197.335327 663.831543,1197.401001 
	C685.317749,1197.502197 706.805969,1197.408325 728.291992,1197.236572 
	C742.448425,1197.123535 756.602417,1196.725098 770.757751,1196.467163 
	C771.588074,1196.452026 772.452942,1196.419678 773.247192,1196.615967 
	C797.057007,1202.502075 821.007812,1198.222778 844.899109,1197.559937 
	C852.385864,1197.352173 859.868896,1196.673340 867.325684,1195.929688 
	C869.548584,1195.708130 871.626221,1194.276001 873.856689,1193.841064 
	C883.766052,1191.908691 893.580139,1191.267944 903.032532,1196.102783 
	C904.500427,1196.853516 906.573853,1196.837769 908.294189,1196.614014 
	C931.589050,1193.585083 954.790283,1189.038330 978.176331,1187.705566 
	C1008.625671,1185.970337 1037.924316,1177.946289 1067.944580,1174.172363 
	C1082.465576,1172.346924 1096.945801,1169.603271 1111.669434,1172.422485 
	C1112.868530,1172.652222 1114.330444,1172.212891 1115.513062,1171.712891 
	C1124.248169,1168.019165 1133.003906,1164.364258 1141.634521,1160.437012 
	C1151.160400,1156.102417 1160.955444,1153.178223 1171.530640,1153.404907 
	C1172.854370,1153.433228 1174.271729,1153.529907 1175.495728,1153.132690 
	C1195.762207,1146.555298 1216.385132,1140.862305 1236.153442,1133.018799 
	C1259.323242,1123.825562 1276.350586,1106.763916 1289.150146,1085.498169 
	C1294.845459,1076.035522 1303.154175,1069.412109 1311.637817,1062.495972 
	C1325.512451,1051.184937 1339.526855,1039.481323 1350.882446,1025.787354 
	C1365.055176,1008.696045 1376.594360,989.420776 1389.265259,971.084717 
	C1389.735962,970.403625 1390.551636,969.671875 1390.531006,968.983887 
	C1390.268188,960.196960 1396.157227,953.596130 1398.498169,945.801392 
	C1399.613159,942.088928 1398.323486,937.625854 1397.992920,933.513306 
	C1396.996704,921.122559 1395.166016,908.793518 1391.382202,896.998169 
	C1389.554688,891.301147 1390.161011,884.205688 1384.031006,880.186890 
	C1383.081543,879.564331 1382.281372,877.838806 1382.353638,876.682190 
	C1382.692627,871.255249 1379.183105,867.689514 1376.343140,863.924438 
	C1358.701050,840.534912 1337.604004,820.493286 1315.342163,801.619446 
	C1313.756592,800.275330 1311.550781,799.592773 1309.549805,798.819092 
	C1270.104248,783.569092 1256.722168,737.151123 1282.439941,704.708801 
	C1304.701416,676.626587 1349.328735,672.441284 1375.784546,696.701050 
	C1385.908325,705.984375 1397.702271,712.352966 1408.993286,719.646973 
	C1439.870972,739.593872 1464.521240,765.660095 1484.993896,795.940125 
	C1501.472900,820.313049 1510.295044,847.841492 1517.895142,875.849060 
	C1520.679932,886.111511 1523.461182,896.428772 1525.234985,906.892090 
	C1526.353027,913.487000 1525.534302,920.400635 1525.700562,927.168518 
	C1526.027344,940.486755 1527.029907,953.820251 1526.643921,967.115234 
	C1526.249268,980.712341 1519.803833,992.692261 1514.185547,1004.762329 
	C1503.697632,1027.293579 1491.566040,1048.698975 1476.040039,1068.365234 
	C1468.198364,1078.297974 1458.449707,1086.016968 1450.387695,1095.400391 
	C1434.775146,1113.572021 1420.348389,1132.758057 1404.963867,1151.133179 
	C1400.570679,1156.380493 1394.568970,1160.279663 1389.313599,1164.807007 
	C1387.811279,1166.101196 1386.307373,1167.396362 1384.858032,1168.748779 
	C1365.503052,1186.809814 1346.144897,1204.867432 1326.825439,1222.966431 
	C1324.281616,1225.349731 1321.937012,1227.946899 1319.517578,1230.461792 
	C1312.835815,1237.406616 1305.203979,1242.998535 1296.038086,1246.144653 
	C1267.854126,1255.818970 1239.793457,1265.899902 1211.360474,1274.784790 
	C1191.986694,1280.838745 1172.085571,1285.217773 1152.380249,1290.186890 
	C1148.688721,1291.117554 1144.821411,1291.453979 1141.010986,1291.790894 
	C1130.551270,1292.715820 1120.496704,1294.818115 1110.363281,1298.022827 
	C1078.352783,1308.146362 1045.741699,1315.697510 1011.816956,1315.226318 
	C1008.488342,1315.180054 1005.113525,1315.212646 1001.844727,1314.684937 
	C989.140198,1312.634277 976.997314,1316.262817 964.716614,1318.218994 
	C935.917786,1322.806152 907.065247,1323.432129 878.001709,1321.171631 
	C868.000549,1320.393677 857.811890,1321.923584 847.714722,1322.499878 
	C810.131653,1324.644775 772.573364,1327.774658 734.961487,1328.662842 
	C710.897400,1329.231201 686.758179,1326.458252 662.645691,1325.331421 
	C659.547974,1325.186646 656.393066,1326.328857 653.291077,1326.206543 
	C634.665894,1325.471924 616.053040,1324.422607 597.427429,1323.701294 
	C557.312317,1322.147583 518.213013,1313.535278 478.774445,1307.160645 
	C466.887268,1305.239258 456.060577,1301.791748 445.331940,1296.349487 
	C438.094360,1292.678101 429.432281,1291.675659 421.312286,1289.918945 
	C411.544434,1287.805908 401.668854,1286.194946 391.852386,1284.301758 
	C377.808167,1281.593262 365.762177,1274.613159 353.919250,1266.968628 
	C348.808563,1263.669556 343.123413,1260.879639 337.318298,1259.103149 
	C312.836792,1251.611572 289.274048,1241.824341 266.892609,1229.592285 
	C252.435379,1221.691162 239.283096,1211.535767 230.261353,1197.094238 
	C229.414917,1195.739258 227.957870,1194.737305 226.698700,1193.672607 
	C212.837784,1181.953979 197.840500,1171.178589 188.275589,1155.397949 
	C181.920868,1144.913696 173.917343,1136.087769 166.033051,1126.892090 
	C154.349121,1113.264526 144.045319,1098.458618 133.002731,1084.272217 
	C130.907974,1081.581055 128.411438,1078.977295 125.582909,1077.121948 
	C113.761482,1069.368164 105.233406,1059.066650 100.183685,1045.870117 
	C99.650124,1044.475830 99.325462,1042.900024 98.451996,1041.752319 
	C83.486839,1022.088806 78.394897,998.492798 72.085091,975.415649 
	C70.162781,968.385071 69.072052,961.127197 67.971619,953.353149 
	C68.936539,950.487732 70.432770,948.026001 69.955582,946.037842 
	C68.496193,939.957520 66.278229,934.059204 64.355331,928.090088 
	C64.162590,920.805481 64.011513,913.519409 63.754002,906.237061 
	C63.666504,903.762817 63.310650,901.298035 63.504303,898.315308 
	C64.975327,890.418518 66.019478,883.035278 67.063629,875.652100 
z"/>
<path fill="#E71A20" opacity="1.000000" stroke="none" 
	d="
M683.930542,822.940063 
	C687.800964,820.073792 691.698486,817.733826 694.829529,814.622498 
	C709.840271,799.705994 721.708862,782.428467 731.741394,763.885315 
	C743.083069,742.922485 757.445496,724.222961 773.735413,706.937134 
	C784.027710,696.015625 791.463867,683.264160 797.849609,669.820251 
	C798.200745,669.080933 798.661438,668.208740 798.560913,667.467590 
	C797.018127,656.093323 799.710022,644.129700 792.992615,633.418579 
	C790.922363,630.117432 791.512085,625.262817 789.952087,621.506470 
	C784.127869,607.482361 774.854492,595.566711 764.948181,584.353516 
	C750.950134,568.508789 735.843933,553.645020 721.778687,537.856445 
	C716.565491,532.004517 713.159424,524.578613 708.558105,518.135498 
	C703.928650,511.652832 698.797546,505.530457 693.956482,499.196564 
	C673.521057,472.459290 655.205322,444.462555 646.781738,411.399872 
	C642.406372,394.226593 643.097839,376.859528 648.542175,359.678253 
	C650.621216,353.117249 650.776428,345.953766 651.887512,339.077667 
	C657.817200,302.381195 672.103943,269.867004 700.409424,244.808823 
	C705.731384,240.097427 712.805054,237.377213 719.021851,233.656982 
	C720.982605,232.483612 723.271240,231.412048 724.583313,229.671051 
	C735.462280,215.235764 749.734314,204.184219 765.445984,196.661942 
	C781.974976,188.748337 796.512756,178.015945 812.340942,169.255280 
	C817.272888,166.525513 822.305603,163.836273 827.576904,161.906189 
	C831.722107,160.388458 835.925781,161.241791 838.246521,165.759308 
	C838.824646,166.884750 839.503845,168.782822 838.987549,169.511017 
	C835.845276,173.942688 835.160950,178.692032 835.810730,183.954056 
	C835.945801,185.047379 834.288879,186.362015 833.294800,187.812653 
	C837.568420,191.476944 839.619629,195.522415 834.341187,200.125015 
	C834.016541,200.408157 833.699829,201.184937 833.856567,201.463913 
	C836.879272,206.843872 831.320190,209.743668 830.501648,213.789612 
	C829.346375,219.499710 826.513306,224.136795 823.788391,228.840012 
	C817.968384,238.885513 811.603271,248.615265 805.450806,258.467743 
	C805.188477,258.887848 804.849915,259.272095 804.495911,259.621521 
	C791.415710,272.532990 778.267822,285.376770 765.281250,298.381683 
	C761.305908,302.362640 757.751770,306.766663 754.046692,311.013550 
	C752.956543,312.263062 752.260254,314.002350 750.957520,314.896698 
	C742.237061,320.883606 738.687500,330.448975 733.963440,339.179169 
	C732.879395,341.182434 732.023376,343.529724 731.862183,345.776093 
	C730.786621,360.764099 731.409973,375.139893 737.519348,389.678925 
	C748.335571,415.419373 768.009338,433.840546 786.116394,453.700531 
	C789.976990,457.934784 793.485413,462.817963 800.124634,463.295258 
	C801.183594,463.371399 802.176636,465.296967 803.079224,466.461304 
	C807.975952,472.777527 812.544128,479.379517 817.818970,485.359589 
	C820.825073,488.767548 824.998718,491.133514 828.572083,494.059723 
	C829.814453,495.077057 831.113525,496.202820 831.911194,497.558807 
	C844.202148,518.453125 860.124146,536.219299 878.086060,552.376587 
	C885.242371,558.813904 891.656555,566.107849 898.125854,573.267273 
	C903.294861,578.987732 906.319397,585.934143 906.549622,593.656067 
	C906.909180,605.711182 911.086609,616.722107 914.751221,627.953796 
	C917.161987,635.342712 919.197266,642.938904 920.402588,650.599243 
	C920.970398,654.208435 919.666260,658.356934 918.379211,661.964478 
	C915.314331,670.555054 911.947388,679.051636 908.357544,687.438538 
	C899.142395,708.967529 885.552368,727.581238 870.017090,744.955566 
	C861.027649,755.009155 852.613464,765.577026 843.934875,775.908875 
	C843.293945,776.671875 842.656494,777.447876 841.936523,778.132874 
	C825.301147,793.961792 808.872681,810.018860 791.884888,825.460632 
	C786.369812,830.473816 779.310486,833.761475 773.095215,838.038452 
	C766.649597,842.473999 760.371582,847.152954 754.018494,851.723083 
	C753.209167,852.305237 752.463074,853.194946 751.564087,853.399902 
	C737.987427,856.494507 730.828430,867.686646 721.871094,876.661987 
	C717.218323,881.324097 712.507141,886.055481 707.207581,889.910461 
	C701.303711,894.205017 694.861084,897.850586 688.351257,901.190796 
	C683.384216,903.739441 677.906799,905.275757 672.733215,907.445740 
	C669.400146,908.843872 665.868896,910.117737 663.008606,912.234131 
	C650.854736,921.226562 637.779846,926.060608 622.286438,924.461365 
	C612.726196,923.474426 602.977600,924.474304 593.335754,924.062622 
	C586.198181,923.757812 578.990112,923.126282 572.014709,921.673645 
	C567.086853,920.647400 562.109680,918.615173 557.851685,915.927612 
	C552.444702,912.514893 552.142273,908.502808 556.576660,903.890686 
	C563.634521,896.550354 571.082458,889.299011 581.112000,886.344727 
	C599.713257,880.865662 615.317871,870.035706 630.951599,859.290771 
	C645.496521,849.294250 659.612122,838.675049 674.016113,828.470337 
	C676.986877,826.365723 680.396790,824.881165 683.930542,822.940063 
z"/>
<path fill="#E71A20" opacity="1.000000" stroke="none" 
	d="
M941.110107,497.915649 
	C928.233582,477.885345 917.517944,457.133636 912.838379,434.046722 
	C909.613464,418.136108 909.874329,401.937042 915.626038,386.256897 
	C916.870972,382.863007 917.750061,379.163879 917.897034,375.568542 
	C918.466858,361.623047 920.998657,347.976532 926.057739,335.113831 
	C936.622620,308.252319 949.349121,282.646362 974.303040,265.672272 
	C991.976501,260.224548 1000.769897,243.134781 1015.714294,234.069397 
	C1021.968933,230.275253 1027.677856,225.570145 1033.984009,221.874908 
	C1043.416748,216.347626 1053.252808,211.512268 1062.738403,206.070633 
	C1070.826538,201.430679 1078.547852,196.147537 1086.668213,191.568878 
	C1089.776123,189.816452 1093.530029,188.421494 1097.010620,188.373322 
	C1099.681641,188.336365 1103.043701,190.062805 1104.910645,192.095795 
	C1107.323975,194.723846 1106.162354,197.908981 1103.597900,200.523209 
	C1102.709229,201.429062 1101.800659,203.459259 1102.227051,204.315750 
	C1104.201660,208.282181 1103.053345,211.377609 1100.173950,214.137451 
	C1105.256958,219.657166 1105.267822,219.849838 1101.417480,226.448929 
	C1101.091797,227.007050 1100.552124,227.887497 1100.758423,228.241455 
	C1103.648071,233.199097 1099.134155,235.939224 1097.749146,239.730698 
	C1095.851074,244.926727 1094.225586,250.111984 1091.169800,254.824036 
	C1084.401611,265.260956 1077.855591,275.841919 1071.208496,286.357635 
	C1070.943848,286.776398 1070.602905,287.158112 1070.248535,287.507385 
	C1057.401978,300.166687 1044.214722,312.502106 1031.802979,325.573822 
	C1021.696106,336.218018 1011.043457,346.466919 1003.858765,359.664459 
	C999.811707,367.098511 998.196167,374.618500 997.983582,383.008850 
	C997.360779,407.588501 1007.611511,427.933136 1022.475830,446.195801 
	C1032.866943,458.962616 1044.423096,470.801575 1055.751465,482.778107 
	C1063.032593,490.475830 1071.298096,497.269653 1078.312622,505.186157 
	C1088.770996,516.989380 1099.210815,528.926819 1108.383911,541.720947 
	C1119.431274,557.129517 1129.337646,573.374268 1139.378784,589.481018 
	C1148.952759,604.838562 1153.208252,622.226501 1156.715576,639.686646 
	C1157.902222,645.593994 1156.860962,651.959229 1156.755249,658.113770 
	C1156.572876,668.731079 1156.338623,679.347534 1156.100098,689.963745 
	C1155.992065,694.770691 1154.708740,699.147217 1151.225098,702.671875 
	C1145.218018,708.749512 1143.549805,716.646545 1141.237305,724.535706 
	C1135.140625,745.336243 1125.743408,764.899780 1111.621460,781.263794 
	C1086.927246,809.878540 1061.184082,837.597168 1035.550659,865.387024 
	C1027.488647,874.127380 1016.009338,877.849915 1005.683289,883.230713 
	C999.518738,886.443054 993.396606,890.095947 988.117188,894.568115 
	C978.921509,902.357788 968.982300,908.373108 957.334045,911.570435 
	C954.292480,912.405396 951.406067,913.790222 948.407837,914.802490 
	C945.418579,915.811768 943.743042,917.432190 942.575256,920.743286 
	C938.651794,931.866882 918.289246,935.216858 909.065247,926.367004 
	C905.790588,923.225159 902.147278,922.215454 897.933472,922.627808 
	C886.337036,923.762878 878.979980,914.322266 883.676453,903.689453 
	C885.652771,899.215088 888.375366,894.714355 891.825317,891.304810 
	C913.889282,869.499329 936.965881,848.675049 958.328857,826.214905 
	C984.033875,799.189819 1008.451355,770.934570 1033.225464,743.033691 
	C1038.955933,736.579956 1044.335327,729.687012 1044.991699,720.380371 
	C1045.088989,719.001404 1046.669189,717.643250 1047.739624,716.431091 
	C1052.586548,710.942261 1057.461914,705.477539 1062.394897,700.065918 
	C1066.593506,695.459778 1065.581665,690.377380 1064.152832,685.092651 
	C1062.478027,678.897949 1059.679932,672.593628 1059.838013,666.399902 
	C1060.203369,652.095764 1054.017700,640.757324 1046.315796,629.681824 
	C1033.407959,611.120422 1017.851807,594.910522 1001.946716,578.966675 
	C995.602905,572.607361 989.579590,565.877686 983.929932,558.896179 
	C980.738770,554.952820 978.663025,550.118347 975.973328,545.754089 
	C973.888123,542.370789 971.785522,538.978638 969.421143,535.790344 
	C960.103821,523.225891 950.679871,510.740417 941.110107,497.915649 
z"/>
<path fill="#E71A20" opacity="1.000000" stroke="none" 
	d="
M502.645264,417.251709 
	C505.835327,423.314545 508.191284,429.530548 512.053284,434.598999 
	C519.010437,443.729492 525.861694,453.384766 534.577087,460.632172 
	C549.408752,472.965607 560.447693,489.057098 577.640625,499.287231 
	C597.226807,510.941406 611.519958,529.169373 625.228699,547.313110 
	C631.244629,555.275208 636.659607,563.689575 642.430420,571.839722 
	C644.253845,574.414856 645.975708,577.265747 648.386597,579.182312 
	C655.267700,584.652527 657.287048,592.433167 659.610474,600.262207 
	C662.680237,610.605713 666.162842,620.826111 669.418030,631.115234 
	C674.763794,648.012085 673.804504,665.079529 669.577209,681.886780 
	C668.361816,686.719238 664.732605,691.527649 660.983704,695.036987 
	C646.327576,708.756714 635.019775,724.955322 625.326416,742.276245 
	C622.335266,747.621216 618.724060,751.772095 613.852661,755.027283 
	C601.543823,763.251953 589.089050,771.259583 576.829651,779.556335 
	C573.139160,782.053894 569.344666,784.759216 566.548218,788.152527 
	C555.360718,801.728088 541.205811,811.478699 526.842834,821.278076 
	C519.363403,826.380981 512.020203,829.072083 503.211517,828.598816 
	C502.133331,828.540833 500.891205,828.994385 499.937012,829.565186 
	C491.520447,834.601013 482.755463,839.177185 474.879761,844.960083 
	C466.887482,850.828613 458.417419,854.857605 448.761749,856.780457 
	C435.869080,859.347900 423.049316,862.286621 410.141602,864.771729 
	C400.421448,866.643066 392.177094,862.440247 384.413788,857.342712 
	C379.628143,854.200317 377.793701,846.650940 381.593811,841.734253 
	C384.997131,837.330933 389.655640,832.613831 394.697113,831.044739 
	C403.471497,828.313843 411.114807,823.947510 418.935669,819.511292 
	C431.945343,812.131958 445.175995,805.142334 458.310059,797.982056 
	C459.614258,797.270996 460.943542,796.588989 462.175659,795.765503 
	C467.256409,792.370422 471.926270,788.067139 477.428467,785.646057 
	C503.182434,774.313477 523.506042,755.956299 542.664368,736.088257 
	C546.177856,732.444519 548.662415,727.726440 551.242371,723.283875 
	C555.166870,716.526062 558.189392,709.175293 562.652100,702.818542 
	C567.208191,696.328674 565.871216,690.516418 563.388611,684.061279 
	C561.865234,680.100037 560.011719,675.758240 560.265625,671.710205 
	C561.278076,655.567139 554.904602,642.278259 545.964722,629.593201 
	C532.843689,610.975281 517.184265,594.648315 501.207428,578.543457 
	C494.531982,571.814453 488.310638,564.598877 482.300507,557.262329 
	C479.613556,553.982422 478.099121,549.768250 475.793793,546.142517 
	C473.041412,541.813660 470.345032,537.379395 467.048035,533.477783 
	C445.815582,508.351898 428.247833,481.092621 416.847290,450.029205 
	C412.469971,438.102234 410.563416,425.962189 410.854065,413.320831 
	C410.909119,410.926971 409.468597,408.489838 408.672699,406.087769 
	C407.796570,403.443451 406.165710,400.841309 406.071625,398.178162 
	C405.185150,373.083832 407.991455,348.593750 419.629181,325.865173 
	C424.092987,317.147369 430.456879,309.818298 437.627838,303.119720 
	C441.239563,299.745941 444.580933,295.963074 447.457123,291.944702 
	C455.219513,281.099792 464.082123,270.893768 475.771667,264.859619 
	C489.639954,257.700806 498.865021,245.604156 510.777161,236.546188 
	C519.101562,230.216324 528.807800,225.698639 537.919922,220.411362 
	C545.092712,216.249344 552.367737,212.259659 559.476501,207.991898 
	C568.474060,202.590164 577.228577,196.772720 586.341675,191.579849 
	C589.567383,189.741776 593.535278,188.379288 597.170105,188.365921 
	C599.757385,188.356415 602.953918,190.441681 604.794739,192.541946 
	C607.083740,195.153473 605.522644,198.038467 603.250244,200.498230 
	C601.820129,202.046326 600.709534,203.998596 599.845093,205.942719 
	C593.762573,219.622025 585.188965,231.667816 575.632263,243.064209 
	C574.040710,244.962112 572.020813,246.495773 570.251526,248.250778 
	C566.309387,252.161148 561.582214,255.583725 558.668884,260.156799 
	C554.234192,267.118073 547.651062,271.529572 541.783997,276.780609 
	C531.882019,285.642944 520.682678,293.173004 513.809143,305.038605 
	C513.246216,306.010406 512.222107,306.734833 511.351593,307.505768 
	C496.154205,320.964722 488.461243,337.324341 487.460602,358.107269 
	C486.920197,369.332184 492.176270,377.823181 494.518219,387.603241 
	C496.873047,397.437103 499.808777,407.131897 502.645264,417.251709 
z"/>
<path fill="#FD0808" opacity="1.000000" stroke="none" 
	d="
M64.307167,928.521240 
	C66.278229,934.059204 68.496193,939.957520 69.955582,946.037842 
	C70.432770,948.026001 68.936539,950.487732 68.035698,952.922791 
	C66.572075,945.059204 65.415543,937.005798 64.307167,928.521240 
z"/>
<path fill="#FE0505" opacity="1.000000" stroke="none" 
	d="
M66.668327,875.668945 
	C66.019478,883.035278 64.975327,890.418518 63.561577,897.903198 
	C63.108711,892.598328 62.711700,887.169312 63.099072,881.796814 
	C63.250660,879.694519 65.162743,877.719055 66.668327,875.668945 
z"/>
</svg>